<svg width="38" height="38" viewBox="0 0 38 38" fill="none" xmlns="http://www.w3.org/2000/svg">
<path d="M25.4535 17.385C25.6461 17.1422 25.7362 16.8336 25.7045 16.5252C25.6727 16.2169 25.5216 15.9331 25.2834 15.7347C25.0453 15.5362 24.7389 15.4387 24.4299 15.4631C24.1208 15.4875 23.8336 15.6317 23.6294 15.865L20.5831 19.521L17.5368 15.8635C17.4311 15.7368 17.3003 15.6336 17.1525 15.5604C17.0048 15.4871 16.8434 15.4454 16.6786 15.438C16.5139 15.4305 16.3494 15.4575 16.1957 15.5171C16.0419 15.5767 15.9023 15.6677 15.7856 15.7843L11.8273 19.7426C11.7138 19.8521 11.6233 19.9831 11.561 20.128C11.4987 20.2728 11.4658 20.4286 11.4644 20.5863C11.463 20.744 11.4929 20.9003 11.5526 21.0463C11.6122 21.1923 11.7003 21.3249 11.8118 21.4365C11.9232 21.548 12.0558 21.6362 12.2017 21.696C12.3476 21.7558 12.5039 21.7859 12.6616 21.7846C12.8193 21.7833 12.9751 21.7506 13.12 21.6885C13.2649 21.6263 13.396 21.5359 13.5056 21.4225L16.5456 18.3841L19.6711 22.1366C19.7826 22.2703 19.922 22.3778 20.0796 22.4516C20.2372 22.5253 20.4091 22.5636 20.5831 22.5636C20.7571 22.5636 20.929 22.5253 21.0866 22.4516C21.2442 22.3778 21.3837 22.2703 21.4951 22.1366L25.4535 17.3866V17.385Z" fill="white"/>
<path fill-rule="evenodd" clip-rule="evenodd" d="M2.771 18.2083C2.771 9.682 9.68225 2.77075 18.2085 2.77075C26.7347 2.77075 33.646 9.682 33.646 18.2083C33.6485 20.2396 33.2488 22.2514 32.4699 24.1276C31.6911 26.0037 30.5486 27.7072 29.1082 29.1396L31.803 32.5089C31.9951 32.7554 32.0823 33.0677 32.0456 33.378C32.009 33.6883 31.8516 33.9717 31.6074 34.1667C31.3632 34.3618 31.052 34.4527 30.7412 34.4197C30.4305 34.3868 30.1452 34.2328 29.9473 33.9909L27.3032 30.6849C24.6637 32.6141 21.4778 33.6513 18.2085 33.6458C9.68225 33.6458 2.771 26.7345 2.771 18.2083ZM18.2085 5.14575C14.7441 5.14575 11.4216 6.52198 8.97191 8.97167C6.52222 11.4214 5.146 14.7439 5.146 18.2083C5.146 21.6726 6.52222 24.9951 8.97191 27.4448C11.4216 29.8945 14.7441 31.2708 18.2085 31.2708C21.6729 31.2708 24.9954 29.8945 27.4451 27.4448C29.8948 24.9951 31.271 21.6726 31.271 18.2083C31.271 14.7439 29.8948 11.4214 27.4451 8.97167C24.9954 6.52198 21.6729 5.14575 18.2085 5.14575Z" fill="white"/>
</svg>
