<svg width="56" height="75" viewBox="0 0 56 75" fill="none" xmlns="http://www.w3.org/2000/svg">
<path d="M53.5736 73.8387H2.11236C-1.91503 61.3093 9.01115 58.5496 14.9777 58.736C-3.81686 38.1518 12.3673 19.2077 22.8087 12.3087C19.6763 10.0709 20.7577 5.41 21.69 3.35925C28.4023 -2.01062 32.6908 2.98634 33.9959 6.15605C25.4937 12.8684 24.1139 30.9544 24.4868 39.1583H31.1991C31.6466 23.4962 35.4876 16.5975 37.3521 15.1058C54.3567 31.2154 47.7935 50.9049 42.3864 58.736C55.3635 58.736 55.2517 68.8045 53.5736 73.8387Z" fill="white"/>
<path d="M45.4326 26.7202C46.3276 38.8024 35.3641 52.2644 29.7705 57.4851C31.113 57.4851 38.9067 58.2309 42.6358 58.6038C50.6906 42.9417 47.8565 30.8222 45.4326 26.7202Z" fill="#ECECEC"/>
<path d="M42.3864 58.736C55.3635 58.736 55.2517 68.8045 53.5736 73.8387H2.11236C-1.91503 61.3093 9.01115 58.5496 14.9777 58.736M42.3864 58.736C47.7935 50.9049 54.3567 31.2154 37.3521 15.1058C35.4876 16.5975 31.6466 23.4962 31.1991 39.1583H24.4868C24.1139 30.9544 25.4937 12.8684 33.9959 6.15605C32.9509 3.61802 29.9931 -0.0915482 25.4098 1.28747C22.7156 2.09811 20.8044 4.69042 20.7283 7.50291C20.68 9.28703 21.1624 11.1325 22.8087 12.3087C12.3673 19.2077 -3.81686 38.1518 14.9777 58.736M42.3864 58.736C36.5694 57.4981 21.6902 58.2202 14.9777 58.736" stroke="black" stroke-width="1.45434"/>
<path d="M24.176 39.0284C20.0738 37.3502 15.3376 29.2949 29.2106 10.4993C26.7866 15.9067 22.386 29.183 24.176 39.0284Z" fill="#ECECEC"/>
</svg>
