<svg width="55" height="75" viewBox="0 0 55 75" fill="none" xmlns="http://www.w3.org/2000/svg">
<path d="M53.0951 74.1427H1.63385C-2.39355 61.6133 8.53263 58.8536 14.4992 59.0399C-4.29538 38.4557 11.8888 19.5116 22.3302 12.6126C19.1978 10.3749 20.2792 5.71396 21.2115 3.6632C27.9238 -1.70666 32.2122 3.29029 33.5174 6.46001C25.0151 13.1723 23.6354 31.2583 24.0083 39.4623H30.7206C31.1681 23.8002 35.0091 16.9014 36.8736 15.4098C53.8782 31.5194 47.315 51.2089 41.9078 59.0399C54.885 59.0399 54.7731 69.1084 53.0951 74.1427Z" fill="#2F2F2F"/>
<path d="M44.9536 27.0239C45.8486 39.1061 34.8851 52.5681 29.2915 57.7888C30.634 57.7888 38.4277 58.5346 42.1568 58.9075C50.2116 43.2454 47.3775 31.1259 44.9536 27.0239Z" fill="#474747"/>
<path d="M41.9078 59.0399C54.885 59.0399 54.7731 69.1084 53.0951 74.1427H1.63385C-2.39355 61.6133 8.53263 58.8536 14.4992 59.0399M41.9078 59.0399C47.315 51.2089 53.8782 31.5194 36.8736 15.4098C35.0091 16.9014 31.1681 23.8002 30.7206 39.4623H24.0083C23.6354 31.2583 25.0151 13.1723 33.5174 6.46001C32.4724 3.92197 29.5146 0.212407 24.9313 1.59143C22.2371 2.40206 20.3259 4.99437 20.2498 7.80686C20.2015 9.59098 20.6838 11.4365 22.3302 12.6126C11.8888 19.5116 -4.29538 38.4557 14.4992 59.0399M41.9078 59.0399C36.0909 57.8021 21.2117 58.5242 14.4992 59.0399" stroke="black" stroke-width="1.45434"/>
<path d="M23.6975 39.3321C19.5953 37.6539 14.8591 29.5986 28.7321 10.803C26.308 16.2105 21.9075 29.4867 23.6975 39.3321Z" fill="#474747"/>
</svg>
