<svg width="62" height="74" viewBox="0 0 62 74" fill="none" xmlns="http://www.w3.org/2000/svg">
<path d="M60.2029 72.9198H8.18234C5.94489 63.0752 12.4708 59.1223 16.0134 58.3764C16.0134 53.4542 20.4883 48.8672 22.7257 47.189C32.123 41.8191 32.2349 34.5101 31.1161 31.5269C30.2212 36.0018 23.658 38.6121 20.4883 39.3579C16.9084 38.9104 14.1489 42.9005 13.2166 44.9515C4.26681 46.294 1.28355 40.6631 0.910645 37.6798C0.910645 35.8899 6.87716 27.2384 9.86042 23.1365C9.41293 16.8716 15.6405 10.8307 18.8102 8.5933C18.8102 1.88097 21.4205 0.948697 22.7257 1.3216L29.9974 8.03394C62.6641 12.5088 59.2706 43.4601 53.4906 58.3764C61.5454 59.7189 61.3216 68.6314 60.2029 72.9198Z" fill="#2F2F2F"/>
<path d="M53.491 57.747C63.3358 28.6603 49.389 14.6762 41.1851 11.3201C61.3221 27.8772 50.6942 48.4243 42.8631 56.6283C46.4431 56.6283 51.44 57.3741 53.491 57.747Z" fill="#474747"/>
<path d="M17.1328 24.4871C19.9309 24.4871 25.1913 23.7037 23.8482 20.5698C22.3559 18.891 18.9236 17.3241 17.1328 24.4871Z" fill="black"/>
<path d="M31.1166 25.8643C30.6691 28.9973 29.0653 33.1373 28.3193 34.8156C28.7669 35.2633 30.1842 32.5778 31.1166 30.8993C32.9069 32.6895 32.0491 36.3075 31.1166 38.1724C35.5923 34.2562 31.6761 21.9481 31.1166 25.8643Z" fill="#474747"/>
<path d="M17.1326 38.1692C13.1036 39.9598 13.2155 42.6458 13.7751 43.765C15.1178 39.7359 19.5575 38.7287 21.6095 38.7287C21.6095 37.3857 18.6249 37.7961 17.1326 38.1692Z" fill="#474747"/>
<path d="M53.4906 58.3764C61.5454 59.7189 61.3216 68.6314 60.2029 72.9198H8.18234C5.94489 63.0752 12.4708 59.1223 16.0134 58.3764M53.4906 58.3764C59.2706 43.4601 62.6641 12.5088 29.9974 8.03394L22.7257 1.3216C21.4205 0.948697 18.8102 1.88097 18.8102 8.5933C15.6405 10.8307 9.41293 16.8716 9.86042 23.1365C6.87716 27.2384 0.910645 35.8899 0.910645 37.6798C1.28355 40.6631 4.26681 46.294 13.2166 44.9515C14.1489 42.9005 16.9084 38.9104 20.4883 39.3579C23.658 38.6121 30.2212 36.0018 31.1161 31.5269C32.2349 34.5101 32.123 41.8191 22.7257 47.189C20.4883 48.8672 16.0134 53.4542 16.0134 58.3764M53.4906 58.3764C44.5408 56.1391 24.7767 57.4442 16.0134 58.3764" stroke="black" stroke-width="1.45434"/>
</svg>
