<svg width="56" height="68" viewBox="0 0 56 68" fill="none" xmlns="http://www.w3.org/2000/svg">
<path d="M53.788 67.0036H2.3268C-0.358134 57.6064 5.68297 53.3925 9.03913 52.4602L12.9547 23.3735C5.79484 22.926 5.1236 10.5082 5.68297 4.35519L14.0734 2.11775L16.8702 11.0675H21.3451L22.4638 0.999023H33.651L34.7697 11.0675H39.804L41.4821 2.11775L49.3131 4.35519C51.1031 19.1223 45.957 23.187 43.1602 23.3735L45.957 52.4602C54.9067 53.3552 54.9067 62.5287 53.788 67.0036Z" fill="#2F2F2F"/>
<path d="M43.0508 23.3747C42.1557 22.4797 33.5411 22.8146 29.0659 22.8146C38.5756 27.8491 39.6944 42.9535 37.4568 50.785C38.5756 50.785 44.5425 51.9038 45.8477 51.9038L43.0508 23.3747Z" fill="#474747"/>
<path d="M45.957 52.4602C54.9067 53.3552 54.9067 62.5287 53.788 67.0036H2.3268C-0.358134 57.6064 5.68297 53.3925 9.03913 52.4602M45.957 52.4602L43.1602 23.3735M45.957 52.4602C34.41 50.2228 16.5339 51.528 9.03913 52.4602M43.1602 23.3735C45.957 23.187 51.1031 19.1223 49.3131 4.35519L41.4821 2.11775L39.804 11.0675H34.7697L33.651 0.999023H22.4638L21.3451 11.0675H16.8702L14.0734 2.11775L5.68297 4.35519C5.1236 10.5082 5.79484 22.926 12.9547 23.3735M43.1602 23.3735C36.0881 21.136 20.0765 22.4412 12.9547 23.3735M12.9547 23.3735L9.03913 52.4602" stroke="black" stroke-width="1.45434"/>
</svg>
