<svg width="53" height="69" viewBox="0 0 53 69" fill="none" xmlns="http://www.w3.org/2000/svg">
<path fill-rule="evenodd" clip-rule="evenodd" d="M34.4796 24.3399C37.7437 21.9696 39.8663 18.1228 39.8663 13.7803C39.8663 6.5779 34.0276 0.739212 26.8252 0.739212C19.6228 0.739212 13.7841 6.5779 13.7841 13.7803C13.7841 18.2034 15.9861 22.1123 19.3537 24.4703C15.2532 25.3993 9.08362 28.1641 11.2746 33.1095C11.611 33.8688 12.4205 34.2721 13.251 34.2721H19.9942C19.4509 38.7997 16.911 47.4788 10.9605 50.2442C10.4021 50.5037 9.82219 50.7227 9.24344 50.9413C8.02958 51.3997 6.82083 51.8562 5.82657 52.6803C2.26418 55.6333 -1.66793 61.1888 0.744219 68.4253H52.2845C53.3195 64.4925 53.1539 55.5091 44.2119 51.0382C40.6931 49.3823 33.7797 43.7108 34.2765 34.2721H39.1772C39.6274 34.2721 40.0772 34.1592 40.4209 33.8683C41.0909 33.3012 41.8692 32.3534 42.2284 31.0835C42.6596 29.5586 41.8309 28.0105 40.6006 27.0118C39.0205 25.7292 36.786 24.4138 34.4796 24.3399Z" fill="#2F2F2F"/>
<path d="M32.9138 33.0298H21.1147C21.1147 47.4371 36.6398 51.8669 44.0919 52.2809C33.659 47.8097 32.2928 37.5838 32.9138 33.0298Z" fill="#474747"/>
<path d="M37.883 10.0537C38.3798 17.5066 31.0512 23.0963 27.3247 24.9595H31.6722C40.1188 19.494 39.1251 12.745 37.883 10.0537Z" fill="#474747"/>
<mask id="path-4-inside-1_46_1723" fill="white">
<path fill-rule="evenodd" clip-rule="evenodd" d="M34.4796 24.3399C37.7437 21.9696 39.8663 18.1228 39.8663 13.7803C39.8663 6.5779 34.0276 0.739212 26.8252 0.739212C19.6228 0.739212 13.7841 6.5779 13.7841 13.7803C13.7841 18.2034 15.9861 22.1123 19.3537 24.4703C15.2532 25.3993 9.08362 28.1641 11.2746 33.1095C11.611 33.8688 12.4205 34.2721 13.251 34.2721H19.9942C19.4509 38.7997 16.911 47.4788 10.9605 50.2442C10.4021 50.5037 9.82219 50.7227 9.24344 50.9413C8.02958 51.3997 6.82083 51.8562 5.82657 52.6803C2.26418 55.6333 -1.66793 61.1888 0.744219 68.4253H52.2845C53.3195 64.4925 53.1539 55.5091 44.2119 51.0382C40.6931 49.3823 33.7797 43.7108 34.2765 34.2721H39.1772C39.6274 34.2721 40.0772 34.1592 40.4209 33.8683C41.0909 33.3012 41.8692 32.3534 42.2284 31.0835C42.6596 29.5586 41.8309 28.0105 40.6006 27.0118C39.0205 25.7292 36.786 24.4138 34.4796 24.3399Z"/>
</mask>
<path d="M34.4796 24.3399L33.5309 23.0334L29.7174 25.8026L34.4278 25.9535L34.4796 24.3399ZM19.3537 24.4703L19.7105 26.0449L23.2666 25.2392L20.2798 23.1478L19.3537 24.4703ZM11.2746 33.1095L12.7507 32.4555L12.7507 32.4555L11.2746 33.1095ZM19.9942 34.2721L21.5972 34.4644L21.814 32.6575H19.9942V34.2721ZM10.9605 50.2442L10.2801 48.7801L10.2801 48.7801L10.9605 50.2442ZM9.24344 50.9413L9.81383 52.4517H9.81383L9.24344 50.9413ZM5.82657 52.6803L6.85693 53.9233L6.85693 53.9233L5.82657 52.6803ZM0.744219 68.4253L-0.787444 68.9358L-0.419457 70.0398H0.744219V68.4253ZM52.2845 68.4253V70.0398H53.5291L53.8459 68.8361L52.2845 68.4253ZM44.2119 51.0382L44.934 49.5941L44.9168 49.5855L44.8994 49.5773L44.2119 51.0382ZM34.2765 34.2721V32.6575H32.7447L32.6642 34.1872L34.2765 34.2721ZM40.4209 33.8683L39.3778 32.636L39.3778 32.636L40.4209 33.8683ZM42.2284 31.0835L40.6748 30.6441L42.2284 31.0835ZM40.6006 27.0118L39.5831 28.2653V28.2653L40.6006 27.0118ZM38.2517 13.7803C38.2517 17.584 36.3948 20.9539 33.5309 23.0334L35.4282 25.6463C39.0927 22.9854 41.4808 18.6616 41.4808 13.7803H38.2517ZM26.8252 2.35373C33.1359 2.35373 38.2517 7.46957 38.2517 13.7803H41.4808C41.4808 5.68623 34.9192 -0.875303 26.8252 -0.875303V2.35373ZM15.3986 13.7803C15.3986 7.46957 20.5145 2.35373 26.8252 2.35373V-0.875303C18.7311 -0.875303 12.1696 5.68623 12.1696 13.7803H15.3986ZM20.2798 23.1478C17.3252 21.0789 15.3986 17.6545 15.3986 13.7803H12.1696C12.1696 18.7524 14.6471 23.1456 18.4277 25.7928L20.2798 23.1478ZM12.7507 32.4555C12.3516 31.5546 12.3738 30.8768 12.5622 30.3305C12.7654 29.7417 13.2224 29.1376 13.9637 28.5443C15.4718 27.3372 17.7686 26.4849 19.7105 26.0449L18.997 22.8957C16.8383 23.3848 14 24.3793 11.946 26.0233C10.9062 26.8555 9.97535 27.9279 9.50976 29.2774C9.02949 30.6694 9.10208 32.1917 9.79844 33.7635L12.7507 32.4555ZM13.251 32.6575C13.0898 32.6575 12.9559 32.6172 12.8686 32.5681C12.7883 32.523 12.7621 32.4812 12.7507 32.4555L9.79844 33.7635C10.4576 35.2513 11.9564 35.8866 13.251 35.8866V32.6575ZM19.9942 32.6575H13.251V35.8866H19.9942V32.6575ZM11.6409 51.7084C15.1112 50.0956 17.448 46.8396 18.9665 43.6051C20.4979 40.3434 21.3085 36.8704 21.5972 34.4644L18.3912 34.0797C18.1366 36.2013 17.4056 39.3317 16.0436 42.2328C14.6687 45.1612 12.7603 47.6275 10.2801 48.7801L11.6409 51.7084ZM9.81383 52.4517C10.383 52.2368 11.0193 51.9973 11.6409 51.7084L10.2801 48.7801C9.78495 49.0102 9.26141 49.2087 8.67305 49.4309L9.81383 52.4517ZM6.85693 53.9233C7.60866 53.3002 8.55429 52.9273 9.81383 52.4517L8.67305 49.4309C7.50486 49.872 6.03301 50.4121 4.79621 51.4374L6.85693 53.9233ZM2.27588 67.9147C0.165753 61.5843 3.54142 56.6717 6.85693 53.9233L4.79621 51.4374C0.986945 54.595 -3.50161 60.7933 -0.787444 68.9358L2.27588 67.9147ZM52.2845 66.8107H0.744219V70.0398H52.2845V66.8107ZM43.4899 52.4822C51.4689 56.4717 51.6561 64.4693 50.7231 68.0144L53.8459 68.8361C54.9828 64.5156 54.8388 54.5466 44.934 49.5941L43.4899 52.4822ZM32.6642 34.1872C32.1198 44.5312 39.6769 50.6884 43.5245 52.499L44.8994 49.5773C41.7094 48.0762 35.4396 42.8903 35.8887 34.3569L32.6642 34.1872ZM39.1772 32.6575H34.2765V35.8866H39.1772V32.6575ZM39.3778 32.636C39.3954 32.621 39.3991 32.6255 39.3679 32.635C39.3336 32.6454 39.2707 32.6575 39.1772 32.6575V35.8866C39.8735 35.8866 40.7396 35.7137 41.4639 35.1006L39.3778 32.636ZM40.6748 30.6441C40.4227 31.5355 39.8639 32.2245 39.3778 32.636L41.4639 35.1006C42.3179 34.3779 43.3158 33.1712 43.782 31.5228L40.6748 30.6441ZM39.5831 28.2653C40.54 29.0421 40.8626 29.98 40.6748 30.6441L43.782 31.5228C44.4566 29.1372 43.1218 26.9789 41.6181 25.7583L39.5831 28.2653ZM34.4278 25.9535C36.2077 26.0106 38.101 27.0623 39.5831 28.2653L41.6181 25.7583C39.9401 24.3962 37.3643 22.817 34.5313 22.7262L34.4278 25.9535Z" fill="black" mask="url(#path-4-inside-1_46_1723)"/>
</svg>
