<svg width="71" height="76" viewBox="0 0 71 76" fill="none" xmlns="http://www.w3.org/2000/svg">
<path fill-rule="evenodd" clip-rule="evenodd" d="M60.9769 75.1701H9.51568C6.38284 67.1149 12.3123 62.1182 15.6687 60.6267C2.34257 50.7273 0.489947 38.7762 1.4971 31.8711C1.80619 29.7519 2.78171 27.7816 4.18358 26.1626C12.654 16.3799 24.4685 20.2526 29.6527 23.7089L30.7714 16.4377H24.6184V7.48793H30.7714V1.33496H39.1618V7.48793H45.8742V16.4377H39.1618L40.8399 23.7089C56.0545 15.2066 65.4518 23.5224 68.2486 28.7431C74.0659 40.3778 61.3498 54.8466 54.2646 60.6267C61.8719 61.9692 61.9092 70.8817 60.9769 75.1701ZM28.6761 35.4569V49.4425H23.6413L15.2499 37.1352C17.4876 29.9745 25.1331 33.0327 28.6761 35.4569ZM42.0971 49.4425V35.4569C45.6402 33.0327 53.2856 29.9745 55.5233 37.1352L47.132 49.4425H42.0971Z" fill="#2F2F2F"/>
<path d="M51.6079 58.9493C58.7677 56.2643 64.2868 36.5748 66.1513 27.0657L68.9481 29.3031C72.9755 40.4903 60.9306 54.4744 54.4047 60.068L51.6079 58.9493Z" fill="#474747"/>
<path d="M38.7427 1.89453H36.5049V10.8459H40.9805V15.881H45.4562V8.04856H38.7427V1.89453Z" fill="#474747"/>
<path d="M28.6747 35.4567V49.4423H23.6399L15.8584 38.0294C15.4732 37.4644 15.3513 36.7415 15.6318 36.1179C18.2552 30.2845 25.3124 33.1561 28.6747 35.4567Z" stroke="black" stroke-width="1.45434"/>
<path d="M42.0977 35.4567V49.4423H47.1325L54.9141 38.0294C55.2993 37.4644 55.4212 36.7415 55.1407 36.1179C52.5172 30.2845 45.4601 33.1561 42.0977 35.4567Z" stroke="black" stroke-width="1.45434"/>
<path d="M54.4047 60.6267C62.012 61.9692 62.0493 70.8817 61.117 75.1701H9.65582C6.52298 67.1149 12.4524 62.1182 15.8088 60.6267M54.4047 60.6267C61.4899 54.8466 74.2061 40.3778 68.3887 28.7431C65.5919 23.5224 56.1947 15.2066 40.98 23.7089L39.302 16.4377H46.0143V7.48793H39.302V1.33496H30.9115V7.48793H24.7586V16.4377H30.9115L29.7928 23.7089C24.6087 20.2526 12.7941 16.3799 4.32371 26.1626C2.92185 27.7816 1.94633 29.7519 1.63723 31.8711C0.630083 38.7762 2.48271 50.7273 15.8088 60.6267M54.4047 60.6267C44.112 57.4939 24.3855 59.3214 15.8088 60.6267" stroke="black" stroke-width="1.45434"/>
</svg>
