<svg width="74" height="71" viewBox="0 0 74 71" fill="none" xmlns="http://www.w3.org/2000/svg">
<path fill-rule="evenodd" clip-rule="evenodd" d="M30.3084 13.7587C32.4994 12.5057 33.9759 10.1457 33.9759 7.44092C33.9759 3.42418 30.7197 0.167969 26.7029 0.167969C22.6862 0.167969 19.43 3.42418 19.43 7.44092C19.43 10.4443 21.2504 13.0224 23.848 14.1322L22.7872 34.2886L13.812 24.7854C14.5374 23.6541 14.958 22.3087 14.958 20.865C14.958 16.8482 11.7018 13.592 7.68506 13.592C3.66832 13.592 0.412109 16.8482 0.412109 20.865C0.412109 24.5407 3.13884 27.5795 6.67989 28.069L6.56571 28.1356L18.8716 56.1037C15.1426 56.2901 8.24379 59.348 10.4812 70.0877H62.5018C63.0612 65.4264 62.1662 56.1037 54.1114 56.1037L65.857 28.1379C65.8576 28.1379 65.8582 28.1379 65.8587 28.1379C69.8755 28.1379 73.1317 24.8817 73.1317 20.865C73.1317 16.8482 69.8755 13.592 65.8587 13.592C61.842 13.592 58.5858 16.8482 58.5858 20.865C58.5858 22.1648 58.9268 23.385 59.5242 24.4409L59.1456 24.2201L50.1959 34.2886L49.146 14.341C52.0329 13.377 54.1138 10.652 54.1138 7.44092C54.1138 3.42418 50.8576 0.167969 46.8409 0.167969C42.8241 0.167969 39.5679 3.42418 39.5679 7.44092C39.5679 9.7464 40.6407 11.8013 42.3142 13.1338L36.2118 30.9324L30.3084 13.7587Z" fill="#2F2F2F"/>
<path d="M40.1274 57.2245C46.895 50.6181 59.6777 37.3003 63.6036 30.3383L64.7408 27.5767C64.6192 28.3062 64.2209 29.2437 63.6036 30.3383L52.9935 56.1058C49.4507 56.4787 41.9175 57.2245 40.1274 57.2245Z" fill="#474747"/>
<path d="M28.6606 1.68091C31.0644 3.4875 32.8566 9.11885 28.6606 13.5909C32.2971 12.4756 36.2133 4.64319 28.6606 1.68091Z" fill="#474747"/>
<path d="M48.8765 1.28662C51.2803 3.09321 53.0724 8.72456 48.8765 13.1966C52.5129 12.0813 56.4291 4.2489 48.8765 1.28662Z" fill="#474747"/>
<path d="M8.24414 14.3992C11.061 15.4516 14.3736 20.3454 11.615 25.8222C14.7871 23.7233 16.3264 15.1027 8.24414 14.3992Z" fill="#474747"/>
<mask id="path-6-inside-1_46_1676" fill="white">
<path fill-rule="evenodd" clip-rule="evenodd" d="M30.3084 13.7587C32.4994 12.5057 33.9759 10.1457 33.9759 7.44092C33.9759 3.42418 30.7197 0.167969 26.7029 0.167969C22.6862 0.167969 19.43 3.42418 19.43 7.44092C19.43 10.4443 21.2504 13.0224 23.848 14.1322L22.7872 34.2886L13.812 24.7854C14.5374 23.6541 14.958 22.3087 14.958 20.865C14.958 16.8482 11.7018 13.592 7.68506 13.592C3.66832 13.592 0.412109 16.8482 0.412109 20.865C0.412109 24.5407 3.13884 27.5795 6.67989 28.069L6.56571 28.1356L18.8716 56.1037C15.1426 56.2901 8.24379 59.348 10.4812 70.0877H62.5018C63.0612 65.4264 62.1662 56.1037 54.1114 56.1037L65.857 28.1379C65.8574 28.1379 65.8578 28.1379 65.8583 28.1379C69.875 28.1379 73.1312 24.8817 73.1312 20.865C73.1312 16.8482 69.875 13.592 65.8583 13.592C61.8415 13.592 58.5853 16.8482 58.5853 20.865C58.5853 22.1646 58.9262 23.3846 59.5234 24.4405L59.1456 24.2201L50.1959 34.2886L49.146 14.341C52.0329 13.377 54.1138 10.652 54.1138 7.44092C54.1138 3.42418 50.8576 0.167969 46.8409 0.167969C42.8241 0.167969 39.5679 3.42418 39.5679 7.44092C39.5679 9.7464 40.6407 11.8013 42.3142 13.1338L36.2118 30.9324L30.3084 13.7587Z"/>
</mask>
<path d="M30.3084 13.7587L29.753 12.7876L28.9495 13.2471L29.2504 14.1224L30.3084 13.7587ZM23.848 14.1322L24.9652 14.1909L25.0063 13.4104L24.2875 13.1034L23.848 14.1322ZM22.7872 34.2886L21.9738 35.0568L23.7671 36.9555L23.9043 34.3474L22.7872 34.2886ZM13.812 24.7854L12.8702 24.1816L12.3981 24.9178L12.9986 25.5536L13.812 24.7854ZM6.67989 28.069L7.24357 29.0354L10.0399 27.4042L6.83309 26.9609L6.67989 28.069ZM6.56571 28.1356L6.00202 27.1693L5.13964 27.6724L5.54172 28.5862L6.56571 28.1356ZM18.8716 56.1037L18.9275 57.221L20.5498 57.1399L19.8956 55.6531L18.8716 56.1037ZM10.4812 70.0877L9.38602 70.3159L9.57156 71.2064H10.4812V70.0877ZM62.5018 70.0877V71.2064H63.4943L63.6125 70.221L62.5018 70.0877ZM54.1114 56.1037L53.0799 55.6705L52.4281 57.2224H54.1114V56.1037ZM65.857 28.1379V27.0192H65.1135L64.8256 27.7047L65.857 28.1379ZM59.5234 24.4405L58.9597 25.4068L62.535 27.4924L60.4972 23.8897L59.5234 24.4405ZM59.1456 24.2201L59.7093 23.2538L58.9181 22.7922L58.3095 23.4769L59.1456 24.2201ZM50.1959 34.2886L49.0787 34.3474L49.2219 37.0682L51.032 35.0318L50.1959 34.2886ZM49.146 14.341L48.7917 13.2799L47.9841 13.5495L48.0288 14.3998L49.146 14.341ZM42.3142 13.1338L43.3725 13.4966L43.6284 12.7502L43.0111 12.2586L42.3142 13.1338ZM36.2118 30.9324L35.1539 31.2961L36.2132 34.3778L37.2701 31.2953L36.2118 30.9324ZM32.8571 7.44092C32.8571 9.72824 31.6099 11.7256 29.753 12.7876L30.8638 14.7298C33.3889 13.2857 35.0946 10.5632 35.0946 7.44092H32.8571ZM26.7029 1.28669C30.1018 1.28669 32.8571 4.04203 32.8571 7.44092H35.0946C35.0946 2.80633 31.3375 -0.950753 26.7029 -0.950753V1.28669ZM20.5487 7.44092C20.5487 4.04203 23.304 1.28669 26.7029 1.28669V-0.950753C22.0683 -0.950753 18.3113 2.80633 18.3113 7.44092H20.5487ZM24.2875 13.1034C22.0872 12.1634 20.5487 9.98054 20.5487 7.44092H18.3113C18.3113 10.908 20.4136 13.8815 23.4085 15.1609L24.2875 13.1034ZM23.9043 34.3474L24.9652 14.1909L22.7309 14.0734L21.67 34.2298L23.9043 34.3474ZM12.9986 25.5536L21.9738 35.0568L23.6005 33.5205L14.6253 24.0173L12.9986 25.5536ZM13.8393 20.865C13.8393 22.0883 13.4835 23.2251 12.8702 24.1816L14.7537 25.3893C15.5912 24.0832 16.0767 22.5291 16.0767 20.865H13.8393ZM7.68506 14.7108C11.0839 14.7108 13.8393 17.4661 13.8393 20.865H16.0767C16.0767 16.2304 12.3196 12.4733 7.68506 12.4733V14.7108ZM1.53083 20.865C1.53083 17.4661 4.28617 14.7108 7.68506 14.7108V12.4733C3.05047 12.4733 -0.706613 16.2304 -0.706613 20.865H1.53083ZM6.83309 26.9609C3.83781 26.5468 1.53083 23.9743 1.53083 20.865H-0.706613C-0.706613 25.107 2.43988 28.6122 6.52668 29.1772L6.83309 26.9609ZM7.12939 29.102L7.24357 29.0354L6.1162 27.1027L6.00202 27.1693L7.12939 29.102ZM19.8956 55.6531L7.58969 27.6851L5.54172 28.5862L17.8477 56.5542L19.8956 55.6531ZM11.5764 69.8595C10.5127 64.7534 11.6505 61.6923 13.2717 59.8853C14.9382 58.0278 17.2853 57.3031 18.9275 57.221L18.8158 54.9864C16.7289 55.0907 13.7621 55.9882 11.6063 58.3911C9.40516 60.8446 8.21237 64.6823 9.38602 70.3159L11.5764 69.8595ZM62.5018 68.969H10.4812V71.2064H62.5018V68.969ZM54.1114 57.2224C55.8933 57.2224 57.2121 57.7322 58.209 58.5136C59.2206 59.3066 59.9685 60.4337 60.4976 61.7617C61.5661 64.4436 61.6573 67.7356 61.391 69.9544L63.6125 70.221C63.9057 67.7784 63.8291 64.0785 62.5762 60.9336C61.9446 59.3484 60.9935 57.8534 59.5893 56.7527C58.1705 55.6405 56.3569 54.985 54.1114 54.985V57.2224ZM64.8256 27.7047L53.0799 55.6705L55.1428 56.5369L66.8885 28.5711L64.8256 27.7047ZM65.8583 27.0192C65.8582 27.0192 65.8582 27.0192 65.8582 27.0192C65.8582 27.0192 65.8582 27.0192 65.8582 27.0192H65.8582H65.8582H65.8582C65.8582 27.0192 65.8582 27.0192 65.8582 27.0192C65.8582 27.0192 65.8582 27.0192 65.8582 27.0192C65.8582 27.0192 65.8582 27.0192 65.8582 27.0192C65.8582 27.0192 65.8582 27.0192 65.8582 27.0192H65.8582H65.8582C65.8582 27.0192 65.8582 27.0192 65.8582 27.0192C65.8582 27.0192 65.8582 27.0192 65.8582 27.0192C65.8581 27.0192 65.8581 27.0192 65.8581 27.0192C65.8581 27.0192 65.8581 27.0192 65.8581 27.0192H65.8581H65.8581H65.8581C65.8581 27.0192 65.8581 27.0192 65.8581 27.0192C65.8581 27.0192 65.8581 27.0192 65.8581 27.0192C65.8581 27.0192 65.8581 27.0192 65.8581 27.0192C65.8581 27.0192 65.8581 27.0192 65.8581 27.0192H65.8581H65.8581C65.8581 27.0192 65.8581 27.0192 65.8581 27.0192C65.8581 27.0192 65.8581 27.0192 65.8581 27.0192C65.8581 27.0192 65.8581 27.0192 65.858 27.0192C65.858 27.0192 65.858 27.0192 65.858 27.0192C65.858 27.0192 65.858 27.0192 65.858 27.0192H65.858H65.858C65.858 27.0192 65.858 27.0192 65.858 27.0192C65.858 27.0192 65.858 27.0192 65.858 27.0192C65.858 27.0192 65.858 27.0192 65.858 27.0192C65.858 27.0192 65.858 27.0192 65.858 27.0192C65.858 27.0192 65.858 27.0192 65.858 27.0192H65.858H65.858C65.858 27.0192 65.858 27.0192 65.858 27.0192C65.858 27.0192 65.858 27.0192 65.8579 27.0192C65.8579 27.0192 65.8579 27.0192 65.8579 27.0192C65.8579 27.0192 65.8579 27.0192 65.8579 27.0192C65.8579 27.0192 65.8579 27.0192 65.8579 27.0192H65.8579H65.8579H65.8579C65.8579 27.0192 65.8579 27.0192 65.8579 27.0192C65.8579 27.0192 65.8579 27.0192 65.8579 27.0192C65.8579 27.0192 65.8579 27.0192 65.8579 27.0192C65.8579 27.0192 65.8579 27.0192 65.8579 27.0192C65.8579 27.0192 65.8579 27.0192 65.8579 27.0192H65.8579H65.8578C65.8578 27.0192 65.8578 27.0192 65.8578 27.0192C65.8578 27.0192 65.8578 27.0192 65.8578 27.0192C65.8578 27.0192 65.8578 27.0192 65.8578 27.0192C65.8578 27.0192 65.8578 27.0192 65.8578 27.0192C65.8578 27.0192 65.8578 27.0192 65.8578 27.0192H65.8578H65.8578C65.8578 27.0192 65.8578 27.0192 65.8578 27.0192C65.8578 27.0192 65.8578 27.0192 65.8578 27.0192C65.8578 27.0192 65.8578 27.0192 65.8578 27.0192C65.8578 27.0192 65.8578 27.0192 65.8578 27.0192C65.8578 27.0192 65.8578 27.0192 65.8578 27.0192H65.8577H65.8577H65.8577C65.8577 27.0192 65.8577 27.0192 65.8577 27.0192C65.8577 27.0192 65.8577 27.0192 65.8577 27.0192C65.8577 27.0192 65.8577 27.0192 65.8577 27.0192C65.8577 27.0192 65.8577 27.0192 65.8577 27.0192C65.8577 27.0192 65.8577 27.0192 65.8577 27.0192H65.8577H65.8577H65.8577C65.8577 27.0192 65.8577 27.0192 65.8577 27.0192C65.8577 27.0192 65.8577 27.0192 65.8577 27.0192C65.8577 27.0192 65.8577 27.0192 65.8577 27.0192C65.8576 27.0192 65.8576 27.0192 65.8576 27.0192C65.8576 27.0192 65.8576 27.0192 65.8576 27.0192H65.8576H65.8576C65.8576 27.0192 65.8576 27.0192 65.8576 27.0192C65.8576 27.0192 65.8576 27.0192 65.8576 27.0192C65.8576 27.0192 65.8576 27.0192 65.8576 27.0192C65.8576 27.0192 65.8576 27.0192 65.8576 27.0192C65.8576 27.0192 65.8576 27.0192 65.8576 27.0192H65.8576H65.8576H65.8576C65.8576 27.0192 65.8576 27.0192 65.8576 27.0192C65.8576 27.0192 65.8576 27.0192 65.8575 27.0192C65.8575 27.0192 65.8575 27.0192 65.8575 27.0192C65.8575 27.0192 65.8575 27.0192 65.8575 27.0192C65.8575 27.0192 65.8575 27.0192 65.8575 27.0192H65.8575H65.8575C65.8575 27.0192 65.8575 27.0192 65.8575 27.0192C65.8575 27.0192 65.8575 27.0192 65.8575 27.0192C65.8575 27.0192 65.8575 27.0192 65.8575 27.0192C65.8575 27.0192 65.8575 27.0192 65.8575 27.0192C65.8575 27.0192 65.8575 27.0192 65.8575 27.0192H65.8575H65.8575H65.8574C65.8574 27.0192 65.8574 27.0192 65.8574 27.0192C65.8574 27.0192 65.8574 27.0192 65.8574 27.0192C65.8574 27.0192 65.8574 27.0192 65.8574 27.0192C65.8574 27.0192 65.8574 27.0192 65.8574 27.0192C65.8574 27.0192 65.8574 27.0192 65.8574 27.0192H65.8574H65.8574C65.8574 27.0192 65.8574 27.0192 65.8574 27.0192C65.8574 27.0192 65.8574 27.0192 65.8574 27.0192C65.8574 27.0192 65.8574 27.0192 65.8574 27.0192C65.8574 27.0192 65.8574 27.0192 65.8574 27.0192C65.8574 27.0192 65.8574 27.0192 65.8574 27.0192H65.8573H65.8573H65.8573C65.8573 27.0192 65.8573 27.0192 65.8573 27.0192C65.8573 27.0192 65.8573 27.0192 65.8573 27.0192C65.8573 27.0192 65.8573 27.0192 65.8573 27.0192C65.8573 27.0192 65.8573 27.0192 65.8573 27.0192H65.8573H65.8573H65.8573C65.8573 27.0192 65.8573 27.0192 65.8573 27.0192C65.8573 27.0192 65.8573 27.0192 65.8573 27.0192C65.8573 27.0192 65.8573 27.0192 65.8573 27.0192C65.8572 27.0192 65.8572 27.0192 65.8572 27.0192H65.8572H65.8572H65.8572C65.8572 27.0192 65.8572 27.0192 65.8572 27.0192C65.8572 27.0192 65.8572 27.0192 65.8572 27.0192C65.8572 27.0192 65.8572 27.0192 65.8572 27.0192C65.8572 27.0192 65.8572 27.0192 65.8572 27.0192H65.8572H65.8572H65.8572C65.8572 27.0192 65.8572 27.0192 65.8572 27.0192C65.8572 27.0192 65.8572 27.0192 65.8572 27.0192C65.8571 27.0192 65.8571 27.0192 65.8571 27.0192C65.8571 27.0192 65.8571 27.0192 65.8571 27.0192H65.8571H65.8571C65.8571 27.0192 65.8571 27.0192 65.8571 27.0192C65.8571 27.0192 65.8571 27.0192 65.8571 27.0192C65.8571 27.0192 65.8571 27.0192 65.8571 27.0192C65.8571 27.0192 65.8571 27.0192 65.8571 27.0192C65.8571 27.0192 65.8571 27.0192 65.8571 27.0192H65.8571H65.8571C65.8571 27.0192 65.8571 27.0192 65.8571 27.0192C65.8571 27.0192 65.8571 27.0192 65.8571 27.0192C65.857 27.0192 65.857 27.0192 65.857 27.0192C65.857 27.0192 65.857 27.0192 65.857 27.0192H65.857H65.857C65.857 27.0192 65.857 27.0192 65.857 27.0192C65.857 27.0192 65.857 27.0192 65.857 27.0192V29.2567C65.857 29.2567 65.857 29.2567 65.857 29.2567C65.857 29.2567 65.857 29.2567 65.857 29.2567H65.857H65.857C65.857 29.2567 65.857 29.2567 65.857 29.2567C65.857 29.2567 65.857 29.2567 65.8571 29.2567C65.8571 29.2567 65.8571 29.2567 65.8571 29.2567C65.8571 29.2567 65.8571 29.2567 65.8571 29.2567H65.8571H65.8571C65.8571 29.2567 65.8571 29.2567 65.8571 29.2567C65.8571 29.2567 65.8571 29.2567 65.8571 29.2567C65.8571 29.2567 65.8571 29.2567 65.8571 29.2567C65.8571 29.2567 65.8571 29.2567 65.8571 29.2567C65.8571 29.2567 65.8571 29.2567 65.8571 29.2567H65.8571H65.8571C65.8571 29.2567 65.8571 29.2567 65.8571 29.2567C65.8571 29.2567 65.8571 29.2567 65.8572 29.2567C65.8572 29.2567 65.8572 29.2567 65.8572 29.2567C65.8572 29.2567 65.8572 29.2567 65.8572 29.2567H65.8572H65.8572H65.8572C65.8572 29.2567 65.8572 29.2567 65.8572 29.2567C65.8572 29.2567 65.8572 29.2567 65.8572 29.2567C65.8572 29.2567 65.8572 29.2567 65.8572 29.2567C65.8572 29.2567 65.8572 29.2567 65.8572 29.2567H65.8572H65.8572H65.8572C65.8572 29.2567 65.8572 29.2567 65.8573 29.2567C65.8573 29.2567 65.8573 29.2567 65.8573 29.2567C65.8573 29.2567 65.8573 29.2567 65.8573 29.2567C65.8573 29.2567 65.8573 29.2567 65.8573 29.2567H65.8573H65.8573H65.8573C65.8573 29.2567 65.8573 29.2567 65.8573 29.2567C65.8573 29.2567 65.8573 29.2567 65.8573 29.2567C65.8573 29.2567 65.8573 29.2567 65.8573 29.2567C65.8573 29.2567 65.8573 29.2567 65.8573 29.2567H65.8573H65.8573H65.8574C65.8574 29.2567 65.8574 29.2567 65.8574 29.2567C65.8574 29.2567 65.8574 29.2567 65.8574 29.2567C65.8574 29.2567 65.8574 29.2567 65.8574 29.2567C65.8574 29.2567 65.8574 29.2567 65.8574 29.2567C65.8574 29.2567 65.8574 29.2567 65.8574 29.2567H65.8574H65.8574C65.8574 29.2567 65.8574 29.2567 65.8574 29.2567C65.8574 29.2567 65.8574 29.2567 65.8574 29.2567C65.8574 29.2567 65.8574 29.2567 65.8574 29.2567C65.8574 29.2567 65.8574 29.2567 65.8574 29.2567C65.8574 29.2567 65.8574 29.2567 65.8574 29.2567H65.8575H65.8575H65.8575C65.8575 29.2567 65.8575 29.2567 65.8575 29.2567C65.8575 29.2567 65.8575 29.2567 65.8575 29.2567C65.8575 29.2567 65.8575 29.2567 65.8575 29.2567C65.8575 29.2567 65.8575 29.2567 65.8575 29.2567C65.8575 29.2567 65.8575 29.2567 65.8575 29.2567H65.8575H65.8575C65.8575 29.2567 65.8575 29.2567 65.8575 29.2567C65.8575 29.2567 65.8575 29.2567 65.8575 29.2567C65.8575 29.2567 65.8575 29.2567 65.8575 29.2567C65.8576 29.2567 65.8576 29.2567 65.8576 29.2567C65.8576 29.2567 65.8576 29.2567 65.8576 29.2567H65.8576H65.8576H65.8576C65.8576 29.2567 65.8576 29.2567 65.8576 29.2567C65.8576 29.2567 65.8576 29.2567 65.8576 29.2567C65.8576 29.2567 65.8576 29.2567 65.8576 29.2567C65.8576 29.2567 65.8576 29.2567 65.8576 29.2567C65.8576 29.2567 65.8576 29.2567 65.8576 29.2567H65.8576H65.8576C65.8576 29.2567 65.8576 29.2567 65.8576 29.2567C65.8576 29.2567 65.8576 29.2567 65.8577 29.2567C65.8577 29.2567 65.8577 29.2567 65.8577 29.2567C65.8577 29.2567 65.8577 29.2567 65.8577 29.2567C65.8577 29.2567 65.8577 29.2567 65.8577 29.2567H65.8577H65.8577H65.8577C65.8577 29.2567 65.8577 29.2567 65.8577 29.2567C65.8577 29.2567 65.8577 29.2567 65.8577 29.2567C65.8577 29.2567 65.8577 29.2567 65.8577 29.2567C65.8577 29.2567 65.8577 29.2567 65.8577 29.2567C65.8577 29.2567 65.8577 29.2567 65.8577 29.2567H65.8577H65.8577H65.8578C65.8578 29.2567 65.8578 29.2567 65.8578 29.2567C65.8578 29.2567 65.8578 29.2567 65.8578 29.2567C65.8578 29.2567 65.8578 29.2567 65.8578 29.2567C65.8578 29.2567 65.8578 29.2567 65.8578 29.2567C65.8578 29.2567 65.8578 29.2567 65.8578 29.2567H65.8578H65.8578C65.8578 29.2567 65.8578 29.2567 65.8578 29.2567C65.8578 29.2567 65.8578 29.2567 65.8578 29.2567C65.8578 29.2567 65.8578 29.2567 65.8578 29.2567C65.8578 29.2567 65.8578 29.2567 65.8578 29.2567C65.8578 29.2567 65.8578 29.2567 65.8578 29.2567H65.8579H65.8579C65.8579 29.2567 65.8579 29.2567 65.8579 29.2567C65.8579 29.2567 65.8579 29.2567 65.8579 29.2567C65.8579 29.2567 65.8579 29.2567 65.8579 29.2567C65.8579 29.2567 65.8579 29.2567 65.8579 29.2567C65.8579 29.2567 65.8579 29.2567 65.8579 29.2567H65.8579H65.8579H65.8579C65.8579 29.2567 65.8579 29.2567 65.8579 29.2567C65.8579 29.2567 65.8579 29.2567 65.8579 29.2567C65.8579 29.2567 65.8579 29.2567 65.8579 29.2567C65.858 29.2567 65.858 29.2567 65.858 29.2567C65.858 29.2567 65.858 29.2567 65.858 29.2567H65.858H65.858C65.858 29.2567 65.858 29.2567 65.858 29.2567C65.858 29.2567 65.858 29.2567 65.858 29.2567C65.858 29.2567 65.858 29.2567 65.858 29.2567C65.858 29.2567 65.858 29.2567 65.858 29.2567C65.858 29.2567 65.858 29.2567 65.858 29.2567H65.858H65.858C65.858 29.2567 65.858 29.2567 65.858 29.2567C65.858 29.2567 65.858 29.2567 65.858 29.2567C65.8581 29.2567 65.8581 29.2567 65.8581 29.2567C65.8581 29.2567 65.8581 29.2567 65.8581 29.2567C65.8581 29.2567 65.8581 29.2567 65.8581 29.2567H65.8581H65.8581C65.8581 29.2567 65.8581 29.2567 65.8581 29.2567C65.8581 29.2567 65.8581 29.2567 65.8581 29.2567C65.8581 29.2567 65.8581 29.2567 65.8581 29.2567C65.8581 29.2567 65.8581 29.2567 65.8581 29.2567H65.8581H65.8581H65.8581C65.8581 29.2567 65.8581 29.2567 65.8581 29.2567C65.8581 29.2567 65.8581 29.2567 65.8582 29.2567C65.8582 29.2567 65.8582 29.2567 65.8582 29.2567C65.8582 29.2567 65.8582 29.2567 65.8582 29.2567H65.8582H65.8582C65.8582 29.2567 65.8582 29.2567 65.8582 29.2567C65.8582 29.2567 65.8582 29.2567 65.8582 29.2567C65.8582 29.2567 65.8582 29.2567 65.8582 29.2567C65.8582 29.2567 65.8582 29.2567 65.8582 29.2567H65.8582H65.8582H65.8582C65.8582 29.2567 65.8582 29.2567 65.8582 29.2567C65.8582 29.2567 65.8582 29.2567 65.8583 29.2567V27.0192ZM72.0125 20.865C72.0125 24.2639 69.2571 27.0192 65.8583 27.0192V29.2567C70.4928 29.2567 74.2499 25.4996 74.2499 20.865H72.0125ZM65.8583 14.7108C69.2571 14.7108 72.0125 17.4661 72.0125 20.865H74.2499C74.2499 16.2304 70.4928 12.4733 65.8583 12.4733V14.7108ZM59.704 20.865C59.704 17.4661 62.4594 14.7108 65.8583 14.7108V12.4733C61.2237 12.4733 57.4666 16.2304 57.4666 20.865H59.704ZM60.4972 23.8897C59.9925 22.9975 59.704 21.9666 59.704 20.865H57.4666C57.4666 22.3626 57.8599 23.7718 58.5497 24.9913L60.4972 23.8897ZM58.5819 25.1864L58.9597 25.4068L60.0871 23.4742L59.7093 23.2538L58.5819 25.1864ZM51.032 35.0318L59.9818 24.9634L58.3095 23.4769L49.3597 33.5454L51.032 35.0318ZM48.0288 14.3998L49.0787 34.3474L51.313 34.2298L50.2632 14.2822L48.0288 14.3998ZM52.9951 7.44092C52.9951 10.1563 51.2358 12.4637 48.7917 13.2799L49.5003 15.4021C52.83 14.2903 55.2326 11.1476 55.2326 7.44092H52.9951ZM46.8409 1.28669C50.2398 1.28669 52.9951 4.04203 52.9951 7.44092H55.2326C55.2326 2.80633 51.4755 -0.950753 46.8409 -0.950753V1.28669ZM40.6867 7.44092C40.6867 4.04203 43.442 1.28669 46.8409 1.28669V-0.950753C42.2063 -0.950753 38.4492 2.80632 38.4492 7.44092H40.6867ZM43.0111 12.2586C41.5926 11.1293 40.6867 9.39125 40.6867 7.44092H38.4492C38.4492 10.1016 39.6887 12.4734 41.6174 14.009L43.0111 12.2586ZM37.2701 31.2953L43.3725 13.4966L41.256 12.771L35.1536 30.5696L37.2701 31.2953ZM29.2504 14.1224L35.1539 31.2961L37.2698 30.5688L31.3663 13.395L29.2504 14.1224Z" fill="black" mask="url(#path-6-inside-1_46_1676)"/>
<path d="M19.4302 56.1033C22.7863 57.4084 34.1973 59.3476 52.9918 56.6626" stroke="black" stroke-width="1.45434" stroke-linecap="round"/>
</svg>
