<svg width="25" height="25" viewBox="0 0 25 25" fill="none" xmlns="http://www.w3.org/2000/svg">
<path d="M9.38931 7.42644C10.3647 11.7469 15.1073 14.7409 17.3566 15.6979C20.6173 13.4145 26.3106 7.45487 22.999 1.88373C17.8046 -1.1406 11.7615 4.31874 9.38931 7.42644Z" fill="#F9D403" stroke="black"/>
<path d="M19.6816 2.99231C18.4908 2.91652 15.7575 3.30498 14.3512 5.46522" stroke="black" stroke-linecap="round"/>
<rect width="1.04237" height="10.4969" rx="0.521185" transform="matrix(-0.704016 -0.710184 -0.708428 0.705783 14.0737 17.5914)" fill="black"/>
<rect width="1.04237" height="10.4969" rx="0.521185" transform="matrix(-0.704016 -0.710184 -0.708428 0.705783 8.16992 11.6061)" fill="black"/>
<rect width="1.04237" height="4.49171" rx="0.521185" transform="matrix(-0.704016 -0.710184 -0.708428 0.705783 8.51025 17.234)" fill="black"/>
<rect width="1.04237" height="3.08653" rx="0.521185" transform="matrix(-0.704016 -0.710184 -0.708428 0.705783 3.23682 22.5209)" fill="black"/>
</svg>
