<svg width="24" height="24" viewBox="0 0 24 24" fill="none" xmlns="http://www.w3.org/2000/svg">
<path fill-rule="evenodd" clip-rule="evenodd" d="M4.5 20C4.5 18.6193 5.61929 17.5 7 17.5H17C18.3807 17.5 19.5 18.6193 19.5 20C19.5 21.3807 18.3807 22.5 17 22.5H7C5.61929 22.5 4.5 21.3807 4.5 20ZM7 18.5C6.17157 18.5 5.5 19.1716 5.5 20C5.5 20.8284 6.17157 21.5 7 21.5H17C17.8284 21.5 18.5 20.8284 18.5 20C18.5 19.1716 17.8284 18.5 17 18.5H7Z" fill="white"/>
<path fill-rule="evenodd" clip-rule="evenodd" d="M10.1145 9.01328C10.3833 9.07653 10.55 9.34571 10.4867 9.61451L8.63131 17.5H15.3687L13.5133 9.61451C13.45 9.34571 13.6167 9.07653 13.8855 9.01328C14.1543 8.95003 14.4235 9.11667 14.4867 9.38547L16.4867 17.8855C16.5217 18.0342 16.4868 18.1907 16.392 18.3104C16.2971 18.4302 16.1528 18.5 16 18.5H8C7.84726 18.5 7.70289 18.4302 7.60805 18.3104C7.51321 18.1907 7.47831 18.0342 7.5133 17.8855L9.5133 9.38547C9.57654 9.11667 9.84572 8.95003 10.1145 9.01328Z" fill="white"/>
<path fill-rule="evenodd" clip-rule="evenodd" d="M12 2.5C10.067 2.5 8.5 4.067 8.5 6C8.5 7.933 10.067 9.5 12 9.5C13.933 9.5 15.5 7.933 15.5 6C15.5 4.067 13.933 2.5 12 2.5ZM7.5 6C7.5 3.51472 9.51472 1.5 12 1.5C14.4853 1.5 16.5 3.51472 16.5 6C16.5 8.48528 14.4853 10.5 12 10.5C9.51472 10.5 7.5 8.48528 7.5 6Z" fill="white"/>
</svg>
