<svg width="250" height="250" viewBox="0 0 250 250" fill="none" xmlns="http://www.w3.org/2000/svg">
<path d="M201.406 223H48.9818C41.0292 195.166 58.9224 182.685 68.8631 179.924L80.4606 93.7712C59.2538 92.4458 57.2657 55.6653 58.9224 37.4407L83.7741 30.8136L92.058 57.322H105.312L108.626 27.5H141.761L145.075 57.322H159.986L164.956 30.8136L188.151 37.4407C193.453 81.1797 178.211 93.2189 169.927 93.7712L178.211 179.924C204.719 182.575 204.719 209.746 201.406 223Z" fill="white"/>
<path d="M169.603 93.7737C166.952 91.1227 141.436 92.1146 128.181 92.1146C156.348 107.026 159.661 151.764 153.034 174.961C156.348 174.961 174.021 178.274 177.887 178.274L169.603 93.7737Z" fill="#ECECEC"/>
<path d="M178.211 179.924C204.719 182.575 204.719 209.746 201.405 223H48.9818C41.0292 195.166 58.9224 182.685 68.8631 179.924M178.211 179.924L169.927 93.7712M178.211 179.924C144.01 173.297 91.0619 177.162 68.8631 179.924M169.927 93.7712C178.211 93.2189 193.453 81.1797 188.151 37.4407L164.956 30.8136L159.986 57.322H145.075L141.761 27.5H108.626L105.312 57.322H92.058L83.7741 30.8136L58.9224 37.4407C57.2657 55.6653 59.2538 92.4458 80.4606 93.7712M169.927 93.7712C148.98 87.1441 101.555 91.0099 80.4606 93.7712M80.4606 93.7712L68.8631 179.924" stroke="black" stroke-width="4.30763"/>
</svg>
