<svg width="24" height="24" viewBox="0 0 24 24" fill="none" xmlns="http://www.w3.org/2000/svg">
<g clip-path="url(#clip0_46_158)">
<path d="M17.8154 12L23.3546 6.46125C23.3873 6.4286 23.4132 6.38984 23.4309 6.34717C23.4485 6.3045 23.4576 6.25877 23.4576 6.21258C23.4576 6.16639 23.4485 6.12066 23.4309 6.07799C23.4132 6.03532 23.3873 5.99655 23.3546 5.96391L18.0366 0.645469C18.004 0.612799 17.9652 0.586883 17.9225 0.569201C17.8799 0.55152 17.8341 0.542419 17.788 0.542419C17.7418 0.542419 17.696 0.55152 17.6534 0.569201C17.6107 0.586883 17.5719 0.612799 17.5393 0.645469L13.6688 4.51594H13.0051V3.52406H14.1769C14.2702 3.52406 14.3596 3.48702 14.4255 3.42109C14.4915 3.35516 14.5285 3.26574 14.5285 3.1725V1.89516C14.5286 1.84897 14.5195 1.80323 14.5019 1.76055C14.4842 1.71786 14.4583 1.67908 14.4257 1.64643C14.393 1.61377 14.3542 1.58788 14.3115 1.57023C14.2689 1.55258 14.2231 1.54353 14.1769 1.54359H13.0051V0.351562C13.0051 0.258322 12.968 0.168901 12.9021 0.10297C12.8362 0.0370395 12.7467 0 12.6535 0L11.3466 0C11.2534 0 11.164 0.0370395 11.098 0.10297C11.0321 0.168901 10.9951 0.258322 10.9951 0.351562V1.54359H9.82319C9.72995 1.54359 9.64053 1.58063 9.57459 1.64656C9.50866 1.71249 9.47162 1.80192 9.47162 1.89516V3.1725C9.47162 3.26574 9.50866 3.35516 9.57459 3.42109C9.64053 3.48702 9.72995 3.52406 9.82319 3.52406H10.9951V4.51594H10.3318L6.46131 0.645469C6.42866 0.612799 6.3899 0.586883 6.34723 0.569201C6.30456 0.55152 6.25883 0.542419 6.21264 0.542419C6.16645 0.542419 6.12072 0.55152 6.07805 0.569201C6.03538 0.586883 5.99662 0.612799 5.96397 0.645469L0.64553 5.96391C0.612861 5.99655 0.586945 6.03532 0.569263 6.07799C0.551581 6.12066 0.54248 6.16639 0.54248 6.21258C0.54248 6.25877 0.551581 6.3045 0.569263 6.34717C0.586945 6.38984 0.612861 6.4286 0.64553 6.46125L6.18475 12L0.64553 17.5392C0.612861 17.5719 0.586945 17.6106 0.569263 17.6533C0.551581 17.696 0.54248 17.7417 0.54248 17.7879C0.54248 17.8341 0.551581 17.8798 0.569263 17.9225C0.586945 17.9651 0.612861 18.0039 0.64553 18.0366L5.96397 23.355C6.03003 23.4207 6.11944 23.4577 6.21264 23.4577C6.30584 23.4577 6.39525 23.4207 6.46131 23.355L6.65631 23.1595V23.6484C6.65631 23.7417 6.69335 23.8311 6.75928 23.897C6.82521 23.963 6.91463 24 7.00787 24H16.9922C17.0855 24 17.1749 23.963 17.2408 23.897C17.3068 23.8311 17.3438 23.7417 17.3438 23.6484V23.1591L17.5393 23.355C17.6053 23.4209 17.6947 23.4579 17.788 23.4579C17.8812 23.4579 17.9706 23.4209 18.0366 23.355L23.3546 18.0361C23.3872 18.0035 23.4132 17.9648 23.4308 17.9221C23.4485 17.8795 23.4576 17.8338 23.4576 17.7877C23.4576 17.7415 23.4485 17.6958 23.4308 17.6532C23.4132 17.6106 23.3872 17.5718 23.3546 17.5392L17.8154 12ZM14.6719 7.26937L15.3671 4.96875C15.383 4.91623 15.3863 4.86072 15.3769 4.80666C15.3675 4.7526 15.3455 4.70151 15.3128 4.65745C15.2801 4.6134 15.2376 4.57761 15.1885 4.55296C15.1395 4.5283 15.0854 4.51546 15.0305 4.51547H14.663L17.7877 1.39078L22.6088 6.21234L17.3185 11.5027L15.3966 9.58313V9.20813C15.3964 8.97953 15.3055 8.76037 15.1439 8.59869C14.9823 8.437 14.7632 8.346 14.5346 8.34562H14.3471L14.5941 7.52719C14.6458 7.46431 14.6739 7.38543 14.6738 7.30406C14.6739 7.29247 14.6732 7.28089 14.6719 7.26937ZM14.5355 9.05062C14.5777 9.05075 14.6181 9.06759 14.6479 9.09747C14.6777 9.12735 14.6944 9.16781 14.6944 9.21V9.59484C14.6944 9.63699 14.6777 9.67741 14.6479 9.70721C14.6181 9.73701 14.5777 9.75375 14.5355 9.75375H9.46412C9.42194 9.75375 9.38147 9.73702 9.35159 9.70724C9.32172 9.67745 9.30487 9.63703 9.30475 9.59484V9.21C9.30475 9.16773 9.32154 9.12719 9.35143 9.09731C9.38132 9.06742 9.42185 9.05062 9.46412 9.05062H14.5355ZM10.1068 7.6575H13.8207L13.6126 8.3475H10.2985L10.1068 7.6575ZM14.2421 18.3323H9.75616L10.0262 15.0361V15.0216L10.4012 10.4569H13.5962L14.2421 18.3323ZM9.46084 10.4573H9.69522L9.38772 14.212L7.17897 12L8.9185 10.2609C9.07221 10.3873 9.26512 10.4563 9.46412 10.4559L9.46084 10.4573ZM10.6285 19.0355H15.1079C15.1787 19.0348 15.248 19.0557 15.3066 19.0954C15.3652 19.1351 15.4103 19.1917 15.436 19.2577L16.2868 21.4102C16.3066 21.4599 16.3148 21.5135 16.3107 21.5668C16.3066 21.6202 16.2904 21.6719 16.2632 21.7181C16.2361 21.7642 16.1988 21.8035 16.1541 21.833C16.1094 21.8625 16.0586 21.8814 16.0055 21.8883H7.99787C7.94479 21.8814 7.89397 21.8625 7.84931 21.833C7.80464 21.8035 7.76732 21.7642 7.74018 21.7181C7.71304 21.6719 7.69681 21.6202 7.69273 21.5668C7.68864 21.5135 7.69682 21.4599 7.71662 21.4102L8.56741 19.2577C8.59315 19.1917 8.6383 19.1352 8.6969 19.0955C8.7555 19.0558 8.82477 19.0349 8.89553 19.0355H10.6285ZM14.2997 10.4573H14.5341C14.733 10.4576 14.9257 10.3886 15.0793 10.2623L16.8212 12L14.611 14.2106L14.2997 10.4573ZM10.1743 2.82094V2.24672H11.3462C11.4394 2.24672 11.5288 2.20968 11.5947 2.14375C11.6607 2.07782 11.6977 1.9884 11.6977 1.89516V0.703125H12.3015V1.89516C12.3015 1.9884 12.3385 2.07782 12.4044 2.14375C12.4704 2.20968 12.5598 2.24672 12.653 2.24672H13.8249V2.82094H12.653C12.5598 2.82094 12.4704 2.85798 12.4044 2.92391C12.3385 2.98984 12.3015 3.07926 12.3015 3.1725V4.51594H11.6982V3.1725C11.6982 3.07926 11.6611 2.98984 11.5952 2.92391C11.5293 2.85798 11.4399 2.82094 11.3466 2.82094H10.1743ZM14.5571 5.21906L14.034 6.95344H9.91272L9.43178 5.21906H14.5571ZM1.39131 6.21234L6.21287 1.39125L9.33756 4.51594H8.96959C8.91542 4.51593 8.86198 4.52843 8.81344 4.55248C8.76489 4.57654 8.72257 4.61148 8.68976 4.65459C8.65695 4.6977 8.63455 4.74781 8.6243 4.801C8.61406 4.8542 8.61624 4.90904 8.63069 4.96125L9.56819 8.34656H9.46412C9.23545 8.34681 9.01622 8.43776 8.85452 8.59946C8.69282 8.76115 8.60187 8.98039 8.60162 9.20906V9.58406L6.67975 11.5036L1.39131 6.21234ZM7.02053 21.8011L6.21287 22.6092L1.39131 17.7877L6.68162 12.4973L9.31412 15.1294L9.05162 18.3319H8.89225C8.68055 18.331 8.47356 18.3943 8.29852 18.5134C8.12348 18.6324 7.9886 18.8017 7.91162 18.9989L7.06084 21.1514C6.97927 21.3583 6.96516 21.5857 7.02053 21.8011ZM16.6407 23.2969H7.35944V22.9753C7.35956 22.8734 7.4001 22.7757 7.47215 22.7037C7.54421 22.6316 7.64191 22.5911 7.74381 22.5909H7.96881C7.99272 22.5909 8.01569 22.5938 8.041 22.5938H15.9587C15.9826 22.5938 16.0055 22.5938 16.0308 22.5909H16.2563C16.3582 22.5911 16.4559 22.6316 16.528 22.7037C16.6 22.7757 16.6406 22.8734 16.6407 22.9753V23.2969ZM17.7882 22.6092L16.9796 21.8006C17.0352 21.5854 17.0211 21.3581 16.9393 21.1514L16.089 18.9989C16.0119 18.8017 15.8769 18.6324 15.7018 18.5134C15.5267 18.3943 15.3196 18.3311 15.1079 18.3319H14.9485L14.686 15.1298L17.3185 12.4973L22.6088 17.7877L17.7882 22.6092Z" fill="#25B39E"/>
</g>
<defs>
<clipPath id="clip0_46_158">
<rect width="24" height="24" fill="white"/>
</clipPath>
</defs>
</svg>
