<svg width="71" height="76" viewBox="0 0 71 76" fill="none" xmlns="http://www.w3.org/2000/svg">
<path fill-rule="evenodd" clip-rule="evenodd" d="M60.4544 74.8674H8.99322C5.86038 66.8121 11.7899 61.8154 15.1462 60.324C1.82011 50.4246 -0.032514 38.4735 0.974636 31.5684C1.28373 29.4491 2.25925 27.4789 3.66112 25.8598C12.1315 16.0772 23.9461 19.9499 29.1302 23.4061L30.2489 16.135H24.096V7.1852H30.2489V1.03223H38.6394V7.1852H45.3517V16.135H38.6394L40.3174 23.4061C55.5321 14.9039 64.9293 23.2197 67.7261 28.4404C73.5435 40.0751 60.8273 54.5439 53.7421 60.324C61.3494 61.6664 61.3867 70.5789 60.4544 74.8674ZM28.1549 35.1535V49.1391H23.12L14.7287 36.8318C16.9664 29.6711 24.6118 32.7293 28.1549 35.1535ZM41.5764 49.1391V35.1535C45.1194 32.7293 52.7649 29.6711 55.0026 36.8318L46.6112 49.1391H41.5764Z" fill="white"/>
<path d="M51.0859 58.6463C58.2458 55.9613 63.7648 36.2718 65.6293 26.7627L68.4261 29.0001C72.4535 40.1874 60.4086 54.1714 53.8827 59.765L51.0859 58.6463Z" fill="#ECECEC"/>
<path d="M38.2222 1.59131H35.9844V10.5426H40.46V15.5777H44.9357V7.74534H38.2222V1.59131Z" fill="#ECECEC"/>
<path d="M28.1528 35.1537V49.1393H23.1179L15.3364 37.7264C14.9512 37.1615 14.8293 36.4385 15.1098 35.8149C17.7333 29.9815 24.7904 32.8531 28.1528 35.1537Z" stroke="black" stroke-width="1.45434"/>
<path d="M41.5748 35.1537V49.1393H46.6096L54.3911 37.7264C54.7763 37.1615 54.8982 36.4385 54.6178 35.8149C51.9943 29.9815 44.9371 32.8531 41.5748 35.1537Z" stroke="black" stroke-width="1.45434"/>
<path d="M53.8822 60.324C61.4896 61.6664 61.5268 70.5789 60.5946 74.8674H9.13336C6.00052 66.8121 11.93 61.8154 15.2863 60.324M53.8822 60.324C60.9675 54.5439 73.6836 40.0751 67.8663 28.4404C65.0695 23.2197 55.6722 14.9039 40.4576 23.4061L38.7795 16.135H45.4918V7.1852H38.7795V1.03223H30.3891V7.1852H24.2361V16.135H30.3891L29.2704 23.4061C24.0862 19.9499 12.2717 16.0772 3.80125 25.8598C2.39939 27.4789 1.42387 29.4491 1.11477 31.5684C0.107623 38.4735 1.96025 50.4246 15.2863 60.324M53.8822 60.324C43.5896 57.1911 23.863 59.0186 15.2863 60.324" stroke="black" stroke-width="1.45434"/>
</svg>
