<svg width="62" height="74" viewBox="0 0 62 74" fill="none" xmlns="http://www.w3.org/2000/svg">
<path d="M60.6824 72.6159H8.66183C6.42439 62.7713 12.9503 58.8184 16.4929 58.0725C16.4929 53.1503 20.9678 48.5633 23.2052 46.885C32.6025 41.5152 32.7144 34.2062 31.5956 31.2229C30.7007 35.6978 24.1375 38.3082 20.9678 39.054C17.3879 38.6065 14.6283 42.5966 13.6961 44.6476C4.7463 45.99 1.76304 40.3591 1.39014 37.3759C1.39014 35.5859 7.35665 26.9345 10.3399 22.8325C9.89242 16.5677 16.12 10.5267 19.2897 8.28934C19.2897 1.57701 21.9 0.644742 23.2052 1.01765L30.4769 7.72998C63.1436 12.2049 59.7501 43.1562 53.9701 58.0725C62.0249 59.4149 61.8011 68.3274 60.6824 72.6159Z" fill="white"/>
<path d="M53.969 57.4421C63.8138 28.3553 49.867 14.3713 41.6631 11.0151C61.8001 27.5722 51.1722 48.1194 43.3412 56.3234C46.9211 56.3234 51.918 57.0692 53.969 57.4421Z" fill="#ECECEC"/>
<path d="M17.6118 24.1824C20.4099 24.1824 25.6703 23.399 24.3272 20.2651C22.8349 18.5863 19.4026 17.0194 17.6118 24.1824Z" fill="black"/>
<path d="M31.5951 25.5601C31.1476 28.6931 29.5438 32.8331 28.7979 34.5114C29.2454 34.9591 30.6627 32.2736 31.5951 30.5951C33.3854 32.3853 32.5276 36.0033 31.5951 37.8682C36.0708 33.952 32.1546 21.6439 31.5951 25.5601Z" fill="#ECECEC"/>
<path d="M17.6116 37.8645C13.5826 39.6551 13.6945 42.3411 14.2541 43.4603C15.5969 39.4312 20.0365 38.424 22.0885 38.4241C22.0885 37.0811 19.1039 37.4914 17.6116 37.8645Z" fill="#ECECEC"/>
<path d="M53.9701 58.0725C62.0249 59.4149 61.8011 68.3274 60.6824 72.6158H8.66183C6.42439 62.7713 12.9503 58.8184 16.4929 58.0725M53.9701 58.0725C59.7501 43.1562 63.1436 12.2049 30.4769 7.72998L23.2052 1.01765C21.9 0.644742 19.2897 1.57701 19.2897 8.28934C16.12 10.5267 9.89242 16.5677 10.3399 22.8325C7.35665 26.9345 1.39014 35.5859 1.39014 37.3759C1.76304 40.3591 4.7463 45.99 13.6961 44.6476C14.6283 42.5966 17.3879 38.6065 20.9678 39.054C24.1375 38.3082 30.7007 35.6978 31.5956 31.2229C32.7144 34.2062 32.6025 41.5152 23.2052 46.885C20.9678 48.5633 16.4929 53.1503 16.4929 58.0725M53.9701 58.0725C45.0203 55.8352 25.2562 57.1403 16.4929 58.0725" stroke="black" stroke-width="1.45434"/>
</svg>
