<svg width="74" height="71" viewBox="0 0 74 71" fill="none" xmlns="http://www.w3.org/2000/svg">
<path fill-rule="evenodd" clip-rule="evenodd" d="M30.7868 14.4546C32.9778 13.2015 34.4544 10.8416 34.4544 8.13672C34.4544 4.11998 31.1982 0.86377 27.1814 0.86377C23.1647 0.86377 19.9085 4.11998 19.9085 8.13672C19.9085 11.1401 21.7289 13.7182 24.3266 14.828L23.2657 34.9847L14.2907 25.4817C15.016 24.3504 15.4365 23.0051 15.4365 21.5615C15.4365 17.5448 12.1803 14.2886 8.16357 14.2886C4.14683 14.2886 0.890625 17.5448 0.890625 21.5615C0.890625 25.237 3.61701 28.2757 7.15772 28.7655L7.04422 28.8317L19.3502 56.7997C15.6211 56.9862 8.7223 60.044 10.9597 70.7838H62.9803C63.5397 66.1224 62.6447 56.7997 54.5899 56.7997L66.3353 28.8345C66.3358 28.8345 66.3363 28.8345 66.3368 28.8345C70.3535 28.8345 73.6097 25.5783 73.6097 21.5615C73.6097 17.5448 70.3535 14.2886 66.3368 14.2886C62.32 14.2886 59.0638 17.5448 59.0638 21.5615C59.0638 22.8609 59.4045 24.0806 60.0015 25.1363L59.6241 24.9162L50.6744 34.9847L49.6245 15.0365C52.5109 14.0722 54.5914 11.3474 54.5914 8.13672C54.5914 4.11998 51.3351 0.86377 47.3184 0.86377C43.3017 0.86377 40.0455 4.11998 40.0455 8.13672C40.0455 10.4426 41.1186 12.4978 42.7926 13.8303L36.6903 31.6285L30.7868 14.4546Z" fill="white"/>
<path d="M40.6064 57.9203C47.374 51.3139 60.1567 37.9961 64.0826 31.0341L65.2198 28.2725C65.0982 29.002 64.6999 29.9395 64.0826 31.0341L53.4725 56.8016C49.9297 57.1745 42.3965 57.9203 40.6064 57.9203Z" fill="#ECECEC"/>
<path d="M29.1392 2.3772C31.543 4.18379 33.3351 9.81514 29.1392 14.2872C32.7756 13.1719 36.6918 5.33948 29.1392 2.3772Z" fill="#ECECEC"/>
<path d="M49.356 1.98267C51.7598 3.78926 53.5519 9.42061 49.356 13.8927C52.9924 12.7774 56.9086 4.94495 49.356 1.98267Z" fill="#ECECEC"/>
<path d="M8.72363 15.0945C11.5405 16.1469 14.8531 21.0407 12.0945 26.5175C15.2666 24.4186 16.8059 15.798 8.72363 15.0945Z" fill="#ECECEC"/>
<mask id="path-6-inside-1_46_1810" fill="white">
<path fill-rule="evenodd" clip-rule="evenodd" d="M30.7887 14.4543C32.9795 13.2012 34.4558 10.8414 34.4558 8.13672C34.4558 4.11998 31.1996 0.86377 27.1829 0.86377C23.1662 0.86377 19.91 4.11998 19.91 8.13672C19.91 11.1403 21.7306 13.7185 24.3285 14.8282L23.2676 34.9847L14.2923 25.4814C15.0175 24.3502 15.438 23.005 15.438 21.5615C15.438 17.5448 12.1818 14.2886 8.16504 14.2886C4.1483 14.2886 0.89209 17.5448 0.89209 21.5615C0.89209 25.2371 3.61868 28.2759 7.15958 28.7655L7.04618 28.8317L19.3521 56.7997C15.623 56.9862 8.72427 60.044 10.9617 70.7838H62.9823C63.5416 66.1224 62.6467 56.7997 54.5919 56.7997L66.3373 28.8345C66.3378 28.8345 66.3382 28.8345 66.3387 28.8345C70.3555 28.8345 73.6117 25.5783 73.6117 21.5615C73.6117 17.5448 70.3555 14.2886 66.3387 14.2886C62.322 14.2886 59.0658 17.5448 59.0658 21.5615C59.0658 22.8609 59.4065 24.0806 60.0035 25.1363L59.6261 24.9162L50.6763 34.9847L49.6264 15.0365C52.5128 14.0722 54.5933 11.3474 54.5933 8.13672C54.5933 4.11998 51.3371 0.86377 47.3204 0.86377C43.3036 0.86377 40.0474 4.11998 40.0474 8.13672C40.0474 10.4426 41.1205 12.4978 42.7946 13.8303L36.6923 31.6285L30.7887 14.4543Z"/>
</mask>
<path d="M30.7887 14.4543L30.2332 13.4832L29.4299 13.9428L29.7307 14.818L30.7887 14.4543ZM24.3285 14.8282L25.4457 14.887L25.4868 14.1064L24.7679 13.7994L24.3285 14.8282ZM23.2676 34.9847L22.4543 35.7528L24.2476 37.6515L24.3848 35.0435L23.2676 34.9847ZM14.2923 25.4814L13.3505 24.8776L12.8786 25.6138L13.479 26.2495L14.2923 25.4814ZM7.15958 28.7655L7.72328 29.7319L10.5194 28.1008L7.31283 27.6574L7.15958 28.7655ZM7.04618 28.8317L6.48249 27.8654L5.62011 28.3684L6.0222 29.2822L7.04618 28.8317ZM19.3521 56.7997L19.408 57.9171L21.0303 57.8359L20.3761 56.3492L19.3521 56.7997ZM10.9617 70.7838L9.8665 71.0119L10.052 71.9025H10.9617V70.7838ZM62.9823 70.7838V71.9025H63.9748L64.093 70.917L62.9823 70.7838ZM54.5919 56.7997L53.5604 56.3665L52.9086 57.9185H54.5919V56.7997ZM66.3373 28.8345V27.7158H65.5938L65.3058 28.4013L66.3373 28.8345ZM60.0035 25.1363L59.4398 26.1026L63.0142 28.1877L60.9773 24.5856L60.0035 25.1363ZM59.6261 24.9162L60.1898 23.9498L59.3985 23.4883L58.79 24.1729L59.6261 24.9162ZM50.6763 34.9847L49.5592 35.0435L49.7024 37.7643L51.5125 35.7279L50.6763 34.9847ZM49.6264 15.0365L49.2719 13.9754L48.4645 14.2451L48.5093 15.0953L49.6264 15.0365ZM42.7946 13.8303L43.8528 14.1931L44.1088 13.4465L43.4913 12.955L42.7946 13.8303ZM36.6923 31.6285L35.6343 31.9922L36.6937 35.0739L37.7506 31.9913L36.6923 31.6285ZM33.3371 8.13672C33.3371 10.4239 32.09 12.4212 30.2332 13.4832L31.3441 15.4254C33.869 13.9812 35.5746 11.2588 35.5746 8.13672H33.3371ZM27.1829 1.98249C30.5818 1.98249 33.3371 4.73783 33.3371 8.13672H35.5746C35.5746 3.50213 31.8175 -0.254952 27.1829 -0.254952V1.98249ZM21.0287 8.13672C21.0287 4.73783 23.784 1.98249 27.1829 1.98249V-0.254952C22.5483 -0.254952 18.7912 3.50213 18.7912 8.13672H21.0287ZM24.7679 13.7994C22.5674 12.8595 21.0287 10.6765 21.0287 8.13672H18.7912C18.7912 11.604 20.8939 14.5776 23.8891 15.857L24.7679 13.7994ZM24.3848 35.0435L25.4457 14.887L23.2113 14.7694L22.1505 34.9259L24.3848 35.0435ZM13.479 26.2495L22.4543 35.7528L24.081 34.2165L15.1056 24.7132L13.479 26.2495ZM14.3193 21.5615C14.3193 22.7846 13.9636 23.9212 13.3505 24.8776L15.2341 26.0851C16.0714 24.7791 16.5567 23.2253 16.5567 21.5615H14.3193ZM8.16504 15.4073C11.5639 15.4073 14.3193 18.1626 14.3193 21.5615H16.5567C16.5567 16.9269 12.7996 13.1699 8.16504 13.1699V15.4073ZM2.01081 21.5615C2.01081 18.1626 4.76615 15.4073 8.16504 15.4073V13.1699C3.53045 13.1699 -0.226632 16.9269 -0.226632 21.5615H2.01081ZM7.31283 27.6574C4.31766 27.2432 2.01081 24.6708 2.01081 21.5615H-0.226632C-0.226632 25.8034 2.9197 29.3086 7.00634 29.8737L7.31283 27.6574ZM7.60987 29.798L7.72328 29.7319L6.59589 27.7992L6.48249 27.8654L7.60987 29.798ZM20.3761 56.3492L8.07017 28.3811L6.0222 29.2822L18.3281 57.2503L20.3761 56.3492ZM12.0569 70.5556C10.9931 65.4494 12.131 62.3884 13.7522 60.5813C15.4187 58.7238 17.7658 57.9992 19.408 57.9171L19.2963 55.6824C17.2094 55.7868 14.2426 56.6842 12.0868 59.0872C9.88564 61.5406 8.69284 65.3784 9.8665 71.0119L12.0569 70.5556ZM62.9823 69.665H10.9617V71.9025H62.9823V69.665ZM54.5919 57.9185C56.3738 57.9185 57.6926 58.4282 58.6895 59.2097C59.7011 60.0027 60.449 61.1297 60.9781 62.4578C62.0466 65.1396 62.1378 68.4317 61.8715 70.6505L64.093 70.917C64.3861 68.4745 64.3096 64.7745 63.0567 61.6297C62.4251 60.0444 61.4739 58.5495 60.0698 57.4488C58.651 56.3366 56.8373 55.681 54.5919 55.681V57.9185ZM65.3058 28.4013L53.5604 56.3665L55.6233 57.2329L67.3687 29.2677L65.3058 28.4013ZM66.3387 27.7158C66.3387 27.7158 66.3387 27.7158 66.3387 27.7158C66.3387 27.7158 66.3387 27.7158 66.3387 27.7158C66.3387 27.7158 66.3387 27.7158 66.3387 27.7158H66.3387C66.3387 27.7158 66.3387 27.7158 66.3387 27.7158C66.3387 27.7158 66.3387 27.7158 66.3387 27.7158H66.3387C66.3387 27.7158 66.3387 27.7158 66.3387 27.7158C66.3387 27.7158 66.3387 27.7158 66.3387 27.7158H66.3387H66.3386C66.3386 27.7158 66.3386 27.7158 66.3386 27.7158C66.3386 27.7158 66.3386 27.7158 66.3386 27.7158H66.3386C66.3386 27.7158 66.3386 27.7158 66.3386 27.7158C66.3386 27.7158 66.3386 27.7158 66.3386 27.7158H66.3386C66.3386 27.7158 66.3386 27.7158 66.3386 27.7158C66.3386 27.7158 66.3386 27.7158 66.3386 27.7158C66.3386 27.7158 66.3386 27.7158 66.3386 27.7158H66.3386C66.3386 27.7158 66.3386 27.7158 66.3386 27.7158C66.3386 27.7158 66.3386 27.7158 66.3386 27.7158H66.3385C66.3385 27.7158 66.3385 27.7158 66.3385 27.7158C66.3385 27.7158 66.3385 27.7158 66.3385 27.7158H66.3385C66.3385 27.7158 66.3385 27.7158 66.3385 27.7158C66.3385 27.7158 66.3385 27.7158 66.3385 27.7158H66.3385H66.3385C66.3385 27.7158 66.3385 27.7158 66.3385 27.7158C66.3385 27.7158 66.3385 27.7158 66.3385 27.7158H66.3385C66.3385 27.7158 66.3385 27.7158 66.3385 27.7158C66.3385 27.7158 66.3385 27.7158 66.3385 27.7158H66.3384C66.3384 27.7158 66.3384 27.7158 66.3384 27.7158C66.3384 27.7158 66.3384 27.7158 66.3384 27.7158H66.3384C66.3384 27.7158 66.3384 27.7158 66.3384 27.7158C66.3384 27.7158 66.3384 27.7158 66.3384 27.7158C66.3384 27.7158 66.3384 27.7158 66.3384 27.7158H66.3384C66.3384 27.7158 66.3384 27.7158 66.3384 27.7158C66.3384 27.7158 66.3384 27.7158 66.3384 27.7158H66.3384C66.3384 27.7158 66.3384 27.7158 66.3384 27.7158C66.3384 27.7158 66.3384 27.7158 66.3384 27.7158H66.3383C66.3383 27.7158 66.3383 27.7158 66.3383 27.7158C66.3383 27.7158 66.3383 27.7158 66.3383 27.7158H66.3383H66.3383C66.3383 27.7158 66.3383 27.7158 66.3383 27.7158C66.3383 27.7158 66.3383 27.7158 66.3383 27.7158H66.3383C66.3383 27.7158 66.3383 27.7158 66.3383 27.7158C66.3383 27.7158 66.3383 27.7158 66.3383 27.7158H66.3383C66.3383 27.7158 66.3383 27.7158 66.3383 27.7158C66.3383 27.7158 66.3383 27.7158 66.3383 27.7158H66.3382C66.3382 27.7158 66.3382 27.7158 66.3382 27.7158C66.3382 27.7158 66.3382 27.7158 66.3382 27.7158H66.3382C66.3382 27.7158 66.3382 27.7158 66.3382 27.7158C66.3382 27.7158 66.3382 27.7158 66.3382 27.7158C66.3382 27.7158 66.3382 27.7158 66.3382 27.7158H66.3382C66.3382 27.7158 66.3382 27.7158 66.3382 27.7158C66.3382 27.7158 66.3382 27.7158 66.3382 27.7158H66.3382C66.3382 27.7158 66.3382 27.7158 66.3382 27.7158C66.3382 27.7158 66.3382 27.7158 66.3382 27.7158H66.3382C66.3381 27.7158 66.3381 27.7158 66.3381 27.7158C66.3381 27.7158 66.3381 27.7158 66.3381 27.7158H66.3381C66.3381 27.7158 66.3381 27.7158 66.3381 27.7158C66.3381 27.7158 66.3381 27.7158 66.3381 27.7158H66.3381C66.3381 27.7158 66.3381 27.7158 66.3381 27.7158C66.3381 27.7158 66.3381 27.7158 66.3381 27.7158C66.3381 27.7158 66.3381 27.7158 66.3381 27.7158H66.3381C66.3381 27.7158 66.3381 27.7158 66.3381 27.7158C66.3381 27.7158 66.3381 27.7158 66.3381 27.7158H66.3381C66.338 27.7158 66.338 27.7158 66.338 27.7158C66.338 27.7158 66.338 27.7158 66.338 27.7158H66.338C66.338 27.7158 66.338 27.7158 66.338 27.7158C66.338 27.7158 66.338 27.7158 66.338 27.7158H66.338C66.338 27.7158 66.338 27.7158 66.338 27.7158C66.338 27.7158 66.338 27.7158 66.338 27.7158H66.338H66.338C66.338 27.7158 66.338 27.7158 66.338 27.7158C66.338 27.7158 66.338 27.7158 66.338 27.7158H66.338C66.3379 27.7158 66.3379 27.7158 66.3379 27.7158C66.3379 27.7158 66.3379 27.7158 66.3379 27.7158H66.3379C66.3379 27.7158 66.3379 27.7158 66.3379 27.7158C66.3379 27.7158 66.3379 27.7158 66.3379 27.7158H66.3379C66.3379 27.7158 66.3379 27.7158 66.3379 27.7158C66.3379 27.7158 66.3379 27.7158 66.3379 27.7158H66.3379C66.3379 27.7158 66.3379 27.7158 66.3379 27.7158C66.3379 27.7158 66.3379 27.7158 66.3379 27.7158H66.3379H66.3379C66.3378 27.7158 66.3378 27.7158 66.3378 27.7158C66.3378 27.7158 66.3378 27.7158 66.3378 27.7158H66.3378C66.3378 27.7158 66.3378 27.7158 66.3378 27.7158C66.3378 27.7158 66.3378 27.7158 66.3378 27.7158H66.3378C66.3378 27.7158 66.3378 27.7158 66.3378 27.7158C66.3378 27.7158 66.3378 27.7158 66.3378 27.7158H66.3378C66.3378 27.7158 66.3378 27.7158 66.3378 27.7158C66.3378 27.7158 66.3378 27.7158 66.3378 27.7158H66.3378C66.3378 27.7158 66.3378 27.7158 66.3378 27.7158C66.3378 27.7158 66.3378 27.7158 66.3377 27.7158C66.3377 27.7158 66.3377 27.7158 66.3377 27.7158H66.3377C66.3377 27.7158 66.3377 27.7158 66.3377 27.7158C66.3377 27.7158 66.3377 27.7158 66.3377 27.7158H66.3377C66.3377 27.7158 66.3377 27.7158 66.3377 27.7158C66.3377 27.7158 66.3377 27.7158 66.3377 27.7158H66.3377C66.3377 27.7158 66.3377 27.7158 66.3377 27.7158C66.3377 27.7158 66.3377 27.7158 66.3377 27.7158H66.3377C66.3377 27.7158 66.3377 27.7158 66.3377 27.7158C66.3377 27.7158 66.3377 27.7158 66.3376 27.7158C66.3376 27.7158 66.3376 27.7158 66.3376 27.7158H66.3376C66.3376 27.7158 66.3376 27.7158 66.3376 27.7158C66.3376 27.7158 66.3376 27.7158 66.3376 27.7158H66.3376C66.3376 27.7158 66.3376 27.7158 66.3376 27.7158C66.3376 27.7158 66.3376 27.7158 66.3376 27.7158H66.3376C66.3376 27.7158 66.3376 27.7158 66.3376 27.7158C66.3376 27.7158 66.3376 27.7158 66.3376 27.7158H66.3376C66.3376 27.7158 66.3376 27.7158 66.3376 27.7158C66.3375 27.7158 66.3375 27.7158 66.3375 27.7158C66.3375 27.7158 66.3375 27.7158 66.3375 27.7158H66.3375C66.3375 27.7158 66.3375 27.7158 66.3375 27.7158C66.3375 27.7158 66.3375 27.7158 66.3375 27.7158H66.3375C66.3375 27.7158 66.3375 27.7158 66.3375 27.7158C66.3375 27.7158 66.3375 27.7158 66.3375 27.7158H66.3375C66.3375 27.7158 66.3375 27.7158 66.3375 27.7158C66.3375 27.7158 66.3375 27.7158 66.3375 27.7158C66.3375 27.7158 66.3375 27.7158 66.3375 27.7158H66.3375C66.3374 27.7158 66.3374 27.7158 66.3374 27.7158C66.3374 27.7158 66.3374 27.7158 66.3374 27.7158H66.3374C66.3374 27.7158 66.3374 27.7158 66.3374 27.7158C66.3374 27.7158 66.3374 27.7158 66.3374 27.7158H66.3374C66.3374 27.7158 66.3374 27.7158 66.3374 27.7158C66.3374 27.7158 66.3374 27.7158 66.3374 27.7158C66.3374 27.7158 66.3374 27.7158 66.3374 27.7158H66.3374C66.3374 27.7158 66.3374 27.7158 66.3374 27.7158C66.3374 27.7158 66.3374 27.7158 66.3374 27.7158H66.3374C66.3373 27.7158 66.3373 27.7158 66.3373 27.7158C66.3373 27.7158 66.3373 27.7158 66.3373 27.7158H66.3373C66.3373 27.7158 66.3373 27.7158 66.3373 27.7158C66.3373 27.7158 66.3373 27.7158 66.3373 27.7158C66.3373 27.7158 66.3373 27.7158 66.3373 27.7158H66.3373C66.3373 27.7158 66.3373 27.7158 66.3373 27.7158C66.3373 27.7158 66.3373 27.7158 66.3373 27.7158H66.3373V29.9532H66.3373C66.3373 29.9532 66.3373 29.9532 66.3373 29.9532C66.3373 29.9532 66.3373 29.9532 66.3373 29.9532H66.3373C66.3373 29.9532 66.3373 29.9532 66.3373 29.9532C66.3373 29.9532 66.3373 29.9532 66.3373 29.9532C66.3373 29.9532 66.3373 29.9532 66.3373 29.9532H66.3373C66.3373 29.9532 66.3373 29.9532 66.3373 29.9532C66.3373 29.9532 66.3373 29.9532 66.3374 29.9532H66.3374C66.3374 29.9532 66.3374 29.9532 66.3374 29.9532C66.3374 29.9532 66.3374 29.9532 66.3374 29.9532H66.3374C66.3374 29.9532 66.3374 29.9532 66.3374 29.9532C66.3374 29.9532 66.3374 29.9532 66.3374 29.9532C66.3374 29.9532 66.3374 29.9532 66.3374 29.9532H66.3374C66.3374 29.9532 66.3374 29.9532 66.3374 29.9532C66.3374 29.9532 66.3374 29.9532 66.3374 29.9532H66.3374C66.3374 29.9532 66.3374 29.9532 66.3374 29.9532C66.3374 29.9532 66.3374 29.9532 66.3375 29.9532H66.3375C66.3375 29.9532 66.3375 29.9532 66.3375 29.9532C66.3375 29.9532 66.3375 29.9532 66.3375 29.9532C66.3375 29.9532 66.3375 29.9532 66.3375 29.9532H66.3375C66.3375 29.9532 66.3375 29.9532 66.3375 29.9532C66.3375 29.9532 66.3375 29.9532 66.3375 29.9532H66.3375C66.3375 29.9532 66.3375 29.9532 66.3375 29.9532C66.3375 29.9532 66.3375 29.9532 66.3375 29.9532H66.3375C66.3375 29.9532 66.3375 29.9532 66.3375 29.9532C66.3375 29.9532 66.3375 29.9532 66.3376 29.9532C66.3376 29.9532 66.3376 29.9532 66.3376 29.9532H66.3376C66.3376 29.9532 66.3376 29.9532 66.3376 29.9532C66.3376 29.9532 66.3376 29.9532 66.3376 29.9532H66.3376C66.3376 29.9532 66.3376 29.9532 66.3376 29.9532C66.3376 29.9532 66.3376 29.9532 66.3376 29.9532H66.3376C66.3376 29.9532 66.3376 29.9532 66.3376 29.9532C66.3376 29.9532 66.3376 29.9532 66.3376 29.9532H66.3376C66.3376 29.9532 66.3376 29.9532 66.3376 29.9532C66.3377 29.9532 66.3377 29.9532 66.3377 29.9532C66.3377 29.9532 66.3377 29.9532 66.3377 29.9532H66.3377C66.3377 29.9532 66.3377 29.9532 66.3377 29.9532C66.3377 29.9532 66.3377 29.9532 66.3377 29.9532H66.3377C66.3377 29.9532 66.3377 29.9532 66.3377 29.9532C66.3377 29.9532 66.3377 29.9532 66.3377 29.9532H66.3377C66.3377 29.9532 66.3377 29.9532 66.3377 29.9532C66.3377 29.9532 66.3377 29.9532 66.3377 29.9532H66.3377C66.3377 29.9532 66.3377 29.9532 66.3377 29.9532C66.3378 29.9532 66.3378 29.9532 66.3378 29.9532C66.3378 29.9532 66.3378 29.9532 66.3378 29.9532H66.3378C66.3378 29.9532 66.3378 29.9532 66.3378 29.9532C66.3378 29.9532 66.3378 29.9532 66.3378 29.9532H66.3378C66.3378 29.9532 66.3378 29.9532 66.3378 29.9532C66.3378 29.9532 66.3378 29.9532 66.3378 29.9532H66.3378C66.3378 29.9532 66.3378 29.9532 66.3378 29.9532C66.3378 29.9532 66.3378 29.9532 66.3378 29.9532H66.3378C66.3378 29.9532 66.3378 29.9532 66.3378 29.9532C66.3378 29.9532 66.3378 29.9532 66.3379 29.9532H66.3379H66.3379C66.3379 29.9532 66.3379 29.9532 66.3379 29.9532C66.3379 29.9532 66.3379 29.9532 66.3379 29.9532H66.3379C66.3379 29.9532 66.3379 29.9532 66.3379 29.9532C66.3379 29.9532 66.3379 29.9532 66.3379 29.9532H66.3379C66.3379 29.9532 66.3379 29.9532 66.3379 29.9532C66.3379 29.9532 66.3379 29.9532 66.3379 29.9532H66.3379C66.3379 29.9532 66.3379 29.9532 66.3379 29.9532C66.3379 29.9532 66.3379 29.9532 66.338 29.9532H66.338C66.338 29.9532 66.338 29.9532 66.338 29.9532C66.338 29.9532 66.338 29.9532 66.338 29.9532H66.338H66.338C66.338 29.9532 66.338 29.9532 66.338 29.9532C66.338 29.9532 66.338 29.9532 66.338 29.9532H66.338C66.338 29.9532 66.338 29.9532 66.338 29.9532C66.338 29.9532 66.338 29.9532 66.338 29.9532H66.338C66.338 29.9532 66.338 29.9532 66.338 29.9532C66.338 29.9532 66.338 29.9532 66.3381 29.9532H66.3381C66.3381 29.9532 66.3381 29.9532 66.3381 29.9532C66.3381 29.9532 66.3381 29.9532 66.3381 29.9532H66.3381C66.3381 29.9532 66.3381 29.9532 66.3381 29.9532C66.3381 29.9532 66.3381 29.9532 66.3381 29.9532C66.3381 29.9532 66.3381 29.9532 66.3381 29.9532H66.3381C66.3381 29.9532 66.3381 29.9532 66.3381 29.9532C66.3381 29.9532 66.3381 29.9532 66.3381 29.9532H66.3381C66.3381 29.9532 66.3381 29.9532 66.3381 29.9532C66.3381 29.9532 66.3381 29.9532 66.3382 29.9532H66.3382C66.3382 29.9532 66.3382 29.9532 66.3382 29.9532C66.3382 29.9532 66.3382 29.9532 66.3382 29.9532H66.3382C66.3382 29.9532 66.3382 29.9532 66.3382 29.9532C66.3382 29.9532 66.3382 29.9532 66.3382 29.9532H66.3382C66.3382 29.9532 66.3382 29.9532 66.3382 29.9532C66.3382 29.9532 66.3382 29.9532 66.3382 29.9532C66.3382 29.9532 66.3382 29.9532 66.3382 29.9532H66.3382C66.3382 29.9532 66.3382 29.9532 66.3382 29.9532C66.3382 29.9532 66.3382 29.9532 66.3382 29.9532H66.3383C66.3383 29.9532 66.3383 29.9532 66.3383 29.9532C66.3383 29.9532 66.3383 29.9532 66.3383 29.9532H66.3383C66.3383 29.9532 66.3383 29.9532 66.3383 29.9532C66.3383 29.9532 66.3383 29.9532 66.3383 29.9532H66.3383C66.3383 29.9532 66.3383 29.9532 66.3383 29.9532C66.3383 29.9532 66.3383 29.9532 66.3383 29.9532H66.3383H66.3383C66.3383 29.9532 66.3383 29.9532 66.3383 29.9532C66.3383 29.9532 66.3383 29.9532 66.3383 29.9532H66.3384C66.3384 29.9532 66.3384 29.9532 66.3384 29.9532C66.3384 29.9532 66.3384 29.9532 66.3384 29.9532H66.3384C66.3384 29.9532 66.3384 29.9532 66.3384 29.9532C66.3384 29.9532 66.3384 29.9532 66.3384 29.9532H66.3384C66.3384 29.9532 66.3384 29.9532 66.3384 29.9532C66.3384 29.9532 66.3384 29.9532 66.3384 29.9532C66.3384 29.9532 66.3384 29.9532 66.3384 29.9532H66.3384C66.3384 29.9532 66.3384 29.9532 66.3384 29.9532C66.3384 29.9532 66.3384 29.9532 66.3384 29.9532H66.3385C66.3385 29.9532 66.3385 29.9532 66.3385 29.9532C66.3385 29.9532 66.3385 29.9532 66.3385 29.9532H66.3385C66.3385 29.9532 66.3385 29.9532 66.3385 29.9532C66.3385 29.9532 66.3385 29.9532 66.3385 29.9532H66.3385H66.3385C66.3385 29.9532 66.3385 29.9532 66.3385 29.9532C66.3385 29.9532 66.3385 29.9532 66.3385 29.9532H66.3385C66.3385 29.9532 66.3385 29.9532 66.3385 29.9532C66.3385 29.9532 66.3385 29.9532 66.3385 29.9532H66.3386C66.3386 29.9532 66.3386 29.9532 66.3386 29.9532C66.3386 29.9532 66.3386 29.9532 66.3386 29.9532H66.3386C66.3386 29.9532 66.3386 29.9532 66.3386 29.9532C66.3386 29.9532 66.3386 29.9532 66.3386 29.9532C66.3386 29.9532 66.3386 29.9532 66.3386 29.9532H66.3386C66.3386 29.9532 66.3386 29.9532 66.3386 29.9532C66.3386 29.9532 66.3386 29.9532 66.3386 29.9532H66.3386C66.3386 29.9532 66.3386 29.9532 66.3386 29.9532C66.3386 29.9532 66.3386 29.9532 66.3386 29.9532H66.3387H66.3387C66.3387 29.9532 66.3387 29.9532 66.3387 29.9532C66.3387 29.9532 66.3387 29.9532 66.3387 29.9532H66.3387C66.3387 29.9532 66.3387 29.9532 66.3387 29.9532C66.3387 29.9532 66.3387 29.9532 66.3387 29.9532H66.3387C66.3387 29.9532 66.3387 29.9532 66.3387 29.9532C66.3387 29.9532 66.3387 29.9532 66.3387 29.9532C66.3387 29.9532 66.3387 29.9532 66.3387 29.9532V27.7158ZM72.493 21.5615C72.493 24.9604 69.7376 27.7158 66.3387 27.7158V29.9532C70.9733 29.9532 74.7304 26.1961 74.7304 21.5615H72.493ZM66.3387 15.4073C69.7376 15.4073 72.493 18.1626 72.493 21.5615H74.7304C74.7304 16.9269 70.9733 13.1699 66.3387 13.1699V15.4073ZM60.1845 21.5615C60.1845 18.1626 62.9398 15.4073 66.3387 15.4073V13.1699C61.7041 13.1699 57.9471 16.9269 57.9471 21.5615H60.1845ZM60.9773 24.5856C60.4728 23.6935 60.1845 22.6629 60.1845 21.5615H57.9471C57.9471 23.0588 58.3402 24.4677 59.0297 25.687L60.9773 24.5856ZM59.0624 25.8825L59.4398 26.1026L60.5672 24.17L60.1898 23.9498L59.0624 25.8825ZM51.5125 35.7279L60.4622 25.6594L58.79 24.1729L49.8402 34.2414L51.5125 35.7279ZM48.5093 15.0953L49.5592 35.0435L51.7935 34.9259L50.7436 14.9777L48.5093 15.0953ZM53.4746 8.13672C53.4746 10.8518 51.7156 13.159 49.2719 13.9754L49.9809 16.0975C53.31 14.9854 55.712 11.843 55.712 8.13672H53.4746ZM47.3204 1.98249C50.7193 1.98249 53.4746 4.73783 53.4746 8.13672H55.712C55.712 3.50213 51.955 -0.254952 47.3204 -0.254952V1.98249ZM41.1661 8.13672C41.1661 4.73783 43.9215 1.98249 47.3204 1.98249V-0.254952C42.6858 -0.254952 38.9287 3.50213 38.9287 8.13672H41.1661ZM43.4913 12.955C42.0724 11.8257 41.1661 10.0874 41.1661 8.13672H38.9287C38.9287 10.7978 40.1686 13.17 42.0979 14.7056L43.4913 12.955ZM37.7506 31.9913L43.8528 14.1931L41.7363 13.4675L35.6341 31.2657L37.7506 31.9913ZM29.7307 14.818L35.6343 31.9922L37.7503 31.2648L31.8466 14.0907L29.7307 14.818Z" fill="black" mask="url(#path-6-inside-1_46_1810)"/>
<path d="M19.9097 56.7991C23.2658 58.1042 34.6768 60.0434 53.4713 57.3584" stroke="black" stroke-width="1.45434" stroke-linecap="round"/>
</svg>
