<svg width="500" height="500" viewBox="0 0 500 500" fill="none" xmlns="http://www.w3.org/2000/svg">
<path d="M402.811 446H97.9635C82.0585 390.332 117.845 365.37 137.726 359.847L160.921 187.542C118.508 184.892 114.531 111.331 117.845 74.8814L167.548 61.6271L184.116 114.644H210.625L217.252 55H283.523L290.15 114.644H319.972L329.913 61.6271L376.303 74.8814C386.906 162.359 356.421 186.438 339.853 187.542L356.421 359.847C409.438 365.149 409.438 419.492 402.811 446Z" fill="white"/>
<path d="M339.205 187.547C333.903 182.245 282.871 184.229 256.361 184.229C312.695 214.053 319.323 303.529 306.068 349.921C312.695 349.921 348.042 356.549 355.774 356.549L339.205 187.547Z" fill="#ECECEC"/>
<path d="M356.421 359.847C409.438 365.149 409.438 419.492 402.811 446H97.9635C82.0585 390.332 117.845 365.37 137.726 359.847M356.421 359.847L339.853 187.542M356.421 359.847C288.019 346.593 182.124 354.325 137.726 359.847M339.853 187.542C356.421 186.438 386.906 162.359 376.303 74.8814L329.913 61.6271L319.972 114.644H290.15L283.523 55H217.252L210.625 114.644H184.116L167.548 61.6271L117.845 74.8814C114.531 111.331 118.508 184.892 160.921 187.542M339.853 187.542C297.96 174.288 203.11 182.02 160.921 187.542M160.921 187.542L137.726 359.847" stroke="black" stroke-width="8.61525"/>
</svg>
