<svg width="38" height="38" viewBox="0 0 38 38" fill="none" xmlns="http://www.w3.org/2000/svg">
<path d="M18.0928 9.33547L18.793 10.736L18.8538 10.7057L18.9117 10.6701L18.0928 9.33547ZM28.0099 21.6014C28.0099 22.4662 28.711 23.1673 29.5758 23.1673C30.4406 23.1673 31.1417 22.4662 31.1417 21.6014H28.0099ZM16.8706 8.19589C16.097 8.58266 15.7835 9.52322 16.1703 10.2967C16.557 11.0702 17.4976 11.3837 18.2711 10.997L16.8706 8.19589ZM7.13173 19.9248V19.0396H4V19.9248H7.13173ZM18.9117 10.6701L24.0352 7.52617L22.3972 4.85695L17.2738 8.00084L18.9117 10.6701ZM24.0283 31.4695L19.4029 28.6114L17.7566 31.2755L22.382 34.1336L24.0283 31.4695ZM16.3848 27.7542H14.9611V30.8859H16.3848V27.7542ZM28.0099 28.1258V29.2494H31.1417V28.1258H28.0099ZM28.0099 9.75053V21.6014H31.1417V9.75053H28.0099ZM11.4412 12.0461L12.2723 11.6278L10.8644 8.83043L10.0333 9.24867L11.4412 12.0461ZM17.3925 7.93491L16.8706 8.19589L18.2711 10.997L18.793 10.736L17.3925 7.93491ZM4 19.9248C4 25.9785 8.90742 30.8859 14.9611 30.8859V27.7542C10.637 27.7542 7.13173 24.2489 7.13173 19.9248H4ZM22.382 34.1336C26.2071 36.4973 31.1417 33.7458 31.1417 29.2494H28.0099C28.0099 31.2932 25.767 32.5439 24.0283 31.4695L22.382 34.1336ZM24.0352 7.52617C25.7741 6.45908 28.0099 7.71032 28.0099 9.75053H31.1417C31.1417 5.26209 26.2229 2.5094 22.3972 4.85695L24.0352 7.52617ZM19.4029 28.6114C18.4959 28.051 17.4509 27.7542 16.3848 27.7542V30.8859C16.8694 30.8859 17.3444 31.0208 17.7566 31.2755L19.4029 28.6114ZM7.13173 19.0396C7.13173 16.0815 8.79896 13.376 11.4412 12.0461L10.0333 9.24867C6.33408 11.1105 4 14.8983 4 19.0396H7.13173Z" fill="#9B9B9B"/>
<path d="M34.2734 33.3452L6.08789 5.15967" stroke="#9B9B9B" stroke-width="3" stroke-linecap="round"/>
</svg>
