<svg width="54" height="69" viewBox="0 0 54 69" fill="none" xmlns="http://www.w3.org/2000/svg">
<path fill-rule="evenodd" clip-rule="evenodd" d="M34.8675 24.3231C38.1305 21.9527 40.2522 18.1066 40.2522 13.765C40.2522 6.56257 34.4135 0.723877 27.2111 0.723877C20.0087 0.723877 14.17 6.56257 14.17 13.765C14.17 18.1875 16.3714 22.0958 19.7382 24.4539C15.6376 25.3834 9.4704 28.1481 11.661 33.0927C11.9974 33.852 12.8069 34.2552 13.6374 34.2552H20.3806C19.8373 38.7828 17.2975 47.462 11.3469 50.2274C10.7885 50.4869 10.2086 50.7059 9.6299 50.9245C8.41602 51.3829 7.20727 51.8393 6.213 52.6635C2.65061 55.6165 -1.2815 61.172 1.13065 68.4084H52.6709C53.7059 64.4756 53.5403 55.4923 44.5984 51.0214C41.0795 49.3654 34.1661 43.6939 34.6629 34.2552H39.5636C40.0138 34.2552 40.4637 34.1423 40.8073 33.8515C41.4773 33.2844 42.2557 32.3366 42.6148 31.0667C43.046 29.5418 42.2174 27.9937 40.987 26.995C39.4073 25.7127 37.1734 24.3975 34.8675 24.3231Z" fill="white"/>
<path d="M33.3 33.0139H21.501C21.501 47.4212 37.0261 51.851 44.4781 52.265C34.0453 47.7938 32.679 37.5679 33.3 33.0139Z" fill="#ECECEC"/>
<path d="M38.2687 10.0376C38.7656 17.4905 31.4369 23.0802 27.7104 24.9434H32.058C40.5046 19.4779 39.5109 12.7289 38.2687 10.0376Z" fill="#ECECEC"/>
<mask id="path-4-inside-1_46_1602" fill="white">
<path fill-rule="evenodd" clip-rule="evenodd" d="M34.8675 24.3231C38.1305 21.9527 40.2522 18.1066 40.2522 13.765C40.2522 6.56257 34.4135 0.723877 27.2111 0.723877C20.0087 0.723877 14.17 6.56257 14.17 13.765C14.17 18.1875 16.3714 22.0958 19.7382 24.4539C15.6376 25.3834 9.4704 28.1481 11.661 33.0927C11.9974 33.852 12.8069 34.2552 13.6374 34.2552H20.3806C19.8373 38.7828 17.2975 47.462 11.3469 50.2274C10.7885 50.4869 10.2086 50.7059 9.6299 50.9245C8.41602 51.3829 7.20727 51.8393 6.213 52.6635C2.65061 55.6165 -1.2815 61.172 1.13065 68.4084H52.6709C53.7059 64.4756 53.5403 55.4923 44.5984 51.0214C41.0795 49.3654 34.1661 43.6939 34.6629 34.2552H39.5636C40.0138 34.2552 40.4637 34.1423 40.8073 33.8515C41.4773 33.2844 42.2557 32.3366 42.6148 31.0667C43.046 29.5418 42.2174 27.9937 40.987 26.995C39.4073 25.7127 37.1734 24.3975 34.8675 24.3231Z"/>
</mask>
<path d="M34.8675 24.3231L33.9186 23.0168L30.1082 25.7848L34.8154 25.9368L34.8675 24.3231ZM19.7382 24.4539L20.0951 26.0285L23.65 25.2227L20.6644 23.1315L19.7382 24.4539ZM11.661 33.0927L13.1371 32.4387L13.1371 32.4387L11.661 33.0927ZM20.3806 34.2552L21.9836 34.4476L22.2005 32.6407H20.3806V34.2552ZM11.3469 50.2274L12.0273 51.6915H12.0273L11.3469 50.2274ZM9.6299 50.9245L10.2003 52.4349H10.2003L9.6299 50.9245ZM6.213 52.6635L7.24335 53.9065L7.24336 53.9065L6.213 52.6635ZM1.13065 68.4084L-0.401016 68.919L-0.0330293 70.023H1.13065V68.4084ZM52.6709 68.4084V70.023H53.9155L54.2323 68.8193L52.6709 68.4084ZM44.5984 51.0214L45.3204 49.5773L45.3032 49.5687L45.2858 49.5605L44.5984 51.0214ZM34.6629 34.2552V32.6407H33.1311L33.0506 34.1704L34.6629 34.2552ZM40.8073 33.8515L41.8504 35.0838L41.8504 35.0838L40.8073 33.8515ZM42.6148 31.0667L41.0612 30.6273L42.6148 31.0667ZM40.987 26.995L39.9695 28.2485L40.987 26.995ZM38.6377 13.765C38.6377 17.5679 36.7815 20.9372 33.9186 23.0168L35.8164 25.6293C39.4796 22.9683 41.8667 18.6453 41.8667 13.765H38.6377ZM27.2111 2.33839C33.5218 2.33839 38.6377 7.45424 38.6377 13.765H41.8667C41.8667 5.6709 35.3052 -0.890638 27.2111 -0.890638V2.33839ZM15.7845 13.765C15.7845 7.45424 20.9004 2.33839 27.2111 2.33839V-0.890638C19.117 -0.890638 12.5555 5.6709 12.5555 13.765H15.7845ZM20.6644 23.1315C17.7105 21.0626 15.7845 17.6386 15.7845 13.765H12.5555C12.5555 18.7363 15.0323 23.129 18.8119 25.7763L20.6644 23.1315ZM13.1371 32.4387C12.7381 31.5379 12.7602 30.8602 12.9486 30.314C13.1516 29.7253 13.6084 29.1213 14.3494 28.528C15.857 27.3211 18.1532 26.4687 20.0951 26.0285L19.3813 22.8794C17.2226 23.3687 14.3849 24.3633 12.3314 26.0073C11.2919 26.8395 10.3613 27.9118 9.89596 29.2612C9.41594 30.6531 9.48863 32.1751 10.1849 33.7466L13.1371 32.4387ZM13.6374 32.6407C13.4762 32.6407 13.3423 32.6004 13.255 32.5513C13.1748 32.5062 13.1485 32.4644 13.1371 32.4387L10.1849 33.7466C10.844 35.2344 12.3428 35.8698 13.6374 35.8698V32.6407ZM20.3806 32.6407H13.6374V35.8698H20.3806V32.6407ZM12.0273 51.6915C15.4977 50.0788 17.8344 46.8227 19.3529 43.5883C20.8843 40.3266 21.6949 36.8536 21.9836 34.4476L18.7776 34.0629C18.523 36.1845 17.7921 39.3149 16.43 42.216C15.0552 45.1444 13.1467 47.6106 10.6665 48.7633L12.0273 51.6915ZM10.2003 52.4349C10.7694 52.2199 11.4057 51.9804 12.0273 51.6915L10.6665 48.7633C10.1714 48.9934 9.64785 49.1919 9.05951 49.4141L10.2003 52.4349ZM7.24336 53.9065C7.99509 53.2834 8.94074 52.9105 10.2003 52.4349L9.05951 49.4141C7.8913 49.8552 6.41945 50.3953 5.18263 51.4205L7.24336 53.9065ZM2.66231 67.8979C0.55218 61.5675 3.92785 56.6549 7.24335 53.9065L5.18264 51.4205C1.37337 54.5782 -3.11518 60.7765 -0.401016 68.919L2.66231 67.8979ZM52.6709 66.7939H1.13065V70.023H52.6709V66.7939ZM43.8763 52.4654C51.8553 56.4549 52.0425 64.4525 51.1096 67.9976L54.2323 68.8193C55.3693 64.4988 55.2253 54.5297 45.3204 49.5773L43.8763 52.4654ZM33.0506 34.1704C32.5062 44.5144 40.0633 50.6716 43.9109 52.4822L45.2858 49.5605C42.0958 48.0593 35.826 42.8735 36.2752 34.3401L33.0506 34.1704ZM39.5636 32.6407H34.6629V35.8698H39.5636V32.6407ZM39.7642 32.6192C39.7819 32.6042 39.7856 32.6086 39.7543 32.6182C39.7201 32.6286 39.6572 32.6407 39.5636 32.6407V35.8698C40.26 35.8698 41.1261 35.6969 41.8504 35.0838L39.7642 32.6192ZM41.0612 30.6273C40.8091 31.5187 40.2503 32.2077 39.7642 32.6192L41.8504 35.0838C42.7043 34.361 43.7022 33.1544 44.1684 31.506L41.0612 30.6273ZM39.9695 28.2485C40.9264 29.0253 41.249 29.9632 41.0612 30.6273L44.1684 31.506C44.843 29.1204 43.5083 26.9621 42.0045 25.7415L39.9695 28.2485ZM34.8154 25.9368C36.5949 25.9942 38.4878 27.0458 39.9695 28.2485L42.0045 25.7415C40.3268 24.3796 37.7518 22.8008 34.9196 22.7094L34.8154 25.9368Z" fill="black" mask="url(#path-4-inside-1_46_1602)"/>
</svg>
